/* XPM */
static char * sukuna_floor_revert_xpm[] = {
"60 60 100 2",
"  	c #9A9792",
". 	c #9B9893",
"+ 	c #999691",
"@ 	c #989590",
"# 	c #989594",
"$ 	c #979492",
"% 	c #97948E",
"& 	c #97948F",
"* 	c #96938E",
"= 	c #94918C",
"- 	c #95928D",
"; 	c #93908B",
"> 	c #989591",
", 	c #979493",
"' 	c #979491",
") 	c #7F3F40",
"! 	c #98958F",
"~ 	c #989592",
"{ 	c #989593",
"] 	c #999693",
"^ 	c #F8BC9B",
"/ 	c #BF8377",
"( 	c #9C9994",
"_ 	c #989694",
": 	c #979490",
"< 	c #989692",
"[ 	c #979594",
"} 	c #989595",
"| 	c #928F8A",
"1 	c #918E89",
"2 	c #908D88",
"3 	c #8F8C87",
"4 	c #8E8B86",
"5 	c #969390",
"6 	c #95928E",
"7 	c #969491",
"8 	c #979593",
"9 	c #9C674E",
"0 	c #F5C18F",
"a 	c #0A080A",
"b 	c #D19071",
"c 	c #212123",
"d 	c #100D10",
"e 	c #141414",
"f 	c #050505",
"g 	c #B4B4BB",
"h 	c #969391",
"i 	c #969392",
"j 	c #510706",
"k 	c #FFFFFF",
"l 	c #8D8A85",
"m 	c #8C8984",
"n 	c #94928F",
"o 	c #949290",
"p 	c #918E8A",
"q 	c #93908C",
"r 	c #94918E",
"s 	c #93908F",
"t 	c #908D89",
"u 	c #93908D",
"v 	c #93908E",
"w 	c #928F8B",
"x 	c #949292",
"y 	c #95928C",
"z 	c #94918F",
"A 	c #201F1F",
"B 	c #FFE1B7",
"C 	c #8B8883",
"D 	c #8F8C88",
"E 	c #080E19",
"F 	c #918E8D",
"G 	c #0C1323",
"H 	c #060911",
"I 	c #8A8782",
"J 	c #8F8C8B",
"K 	c #908D8B",
"L 	c #8D8A86",
"M 	c #8E8B88",
"N 	c #8F8C8A",
"O 	c #898681",
"P 	c #8E8B87",
"Q 	c #908D8C",
"R 	c #8F8D8A",
"S 	c #888580",
"T 	c #918E8C",
"U 	c #87847F",
"V 	c #918E8B",
"W 	c #86837E",
"X 	c #908E8B",
"Y 	c #85827D",
"Z 	c #908D8D",
"` 	c #8B8884",
" .	c #8C8985",
"..	c #8C8986",
"+.	c #8D8A89",
"@.	c #898682",
"#.	c #88182D",
"$.	c #631323",
"%.	c #3E0B1E",
"&.	c #B0273C",
"  . + @ + . .   + # $ % & @ + @ & & & @ +   + @ * = * @ + + + @ @ @   + @ & * * & @ + @ & & * - - - * * * = ; ; ; = = = ",
"  . + @ @ +   + @ > , ' & @ @ @ & & & @ @ + + @ & & & & @ ) @ @ @ )   + @ & * & & @ + @ @ & - = = - * * * = = = = = = = ",
"  . + & & @ @ @ @ ! ~ { > @ @ @ @ & * & @ + + + +   + @ ) ) @ + ) )   + + @ & & & @ @ @ & * - = = - - * * - - = = - - = ",
"  . + & * & * & @ @ @ ] # & & @ @ & * & @ + + +   ) + ) ) ^ ) ) / ^ ) @ + + @ @ @ & * * * * - - - - - - - * - = = - - - ",
"  (   & * * - * @ + + ] _ : * @ @ & * * @ + + +   ) ) ) / ^ ) / ^ ^ ) ) ) ) ) @ & - = = - - * * - - = = = - = = = - - - ",
"  .   @ * - = * & +   + < [ * + + & * & @ + + ) + ) / ) ^ ^ / ^ ^ / ) ^ / ) @ & * = ; ; - - * * * - - = ; = ; ; ; = = = ",
"& @ & * = ; ; = * & @ @ ~ } :     @ @ + . . . ) ) ) / / ^ / / ^ ^ / ^ / ) * & & * = ; - * * * * - - - - = | | 1 1 2 3 3 ",
"* * * = | | ; = - * * % ' } : + + @ & @ +     ) / ) ) / / / ^ ^ ^ ^ / / ) ) ) - - ; ; = = = = = = = = = = | | 1 2 3 3 4 ",
"- = = ; 1 1 = = = = = - 5 [ : @ @ & * & @ @ @ ) / / / / / / / / / / ^ ^ ) | ; ; ; ; ; ; ; ; ; ; ; | ; ; | | 1 1 2 3 3 4 ",
"= = = ; 1 | - - = = = = 6 7 8 : & * * * & & & ) 9 / 0 0 0 / 9 a / ) / / / ) 1 | | ; ; ; ; ; ; | | | 1 1 1 1 1 2 2 3 3 4 ",
"- - - = | ; * * - - = - * & { { : & & & * * * a b c 0 c 0 b b 9 d a ) ) ) ) ) | | ; = = ; ; ; | | 1 1 1 2 2 2 2 3 3 3 4 ",
"- * * - ; = & * * * - * & & @ { { ' & & * - * a b e c e 0 b b 9 d d a a a | | | | ; = = = ; ; | | 1 1 2 2 2 2 3 3 3 4 4 ",
"* & & * = = & & & * * * & * * * $ { > * = = = a 9 0 e 0 b f f b d d d a ; | | | | ; ; ; ; ; | 1 1 2 2 3 3 3 3 3 3 4 4 4 ",
"* & & * = = * * * & * * * - - - - $ , - ; | | ; f f 0 9 f g 9 b a f f a ; | | 1 1 | | | | | 1 2 2 3 4 4 4 3 3 4 4 4 4 4 ",
"- - * - = = = - * * * - - = ; ; = h i ; | 2 1 | f j b b j k b c f 0 f | | | 1 1 2 2 2 2 1 1 2 3 4 l l m l 4 4 4 4 4 4 4 ",
"| ; ; ; = - * - - - - = ; ; ; ; ; n o p 2 2 1 ; f c e c 0 0 j c b b f ; ; | | 1 2 2 3 3 3 3 4 4 4 4 4 3 3 2 2 3 4 4 l l ",
"| ; ; = - * * - - - = = ; ; ; ; ; q r s t 1 | = f b 9 0 0 b 0 e f f ; ; | | | 1 2 3 3 3 3 3 4 4 4 4 3 3 3 3 3 4 4 4 4 4 ",
"; = = * & & * - - - = = ; ; ; | ; ; q u v w ; - - f b g k 0 e f b f f ; | | 1 1 2 3 3 3 3 4 4 l l 4 4 3 3 4 4 l l 4 4 4 ",
"; = - * @ & * - - - = = ; ; ; | ; ; ; q x q y & * = f b 0 e b e b 9 9 f f f 1 2 3 3 3 3 4 4 l l l l 4 4 4 4 4 l l l 4 4 ",
"; = = * * * * - - - = = ; ; ; | ; ; ; q z z * f f f 9 f f b e e b 9 b e 0 b f 2 3 3 3 4 4 4 l l l l 4 4 4 3 4 4 l l l l ",
"; ; ; = = - * - - - = = ; ; ; | ; ; ; | | z f e 9 9 9 b b 9 9 9 9 b b A B e b f 3 3 4 4 4 l l l l l l 4 3 2 3 4 l m m m ",
"| | | ; ; - * - - - = = ; ; ; | ; ; ; | 1 f 9 e B 0 0 9 b B c e 0 9 b A B B 0 f 3 4 4 4 l l l m m l l l 4 3 3 4 l m m C ",
"1 1 | ; = - * - - - = = ; ; ; ; ; ; ; 1 2 f e B 0 0 0 b 0 B 0 0 0 0 b 0 A A e f 3 4 4 l l l m m m m l l l 4 4 l m m m m ",
"2 1 | ; = - * - - - - = ; ; ; ; ; ; | 1 2 f b 0 c 0 9 b 0 c c 0 c e f b 0 B 0 9 f 4 4 l l l m m m m l l l l m m m m m l ",
"2 3 3 1 = - * * * * - = ; | 1 3 4 2 1 1 f 9 f e b c 9 9 c b c c c e f f A A e e f 3 4 l l l l l l l l l l C m m m m m m ",
"2 4 3 1 ; = = = = = = ; ; | 1 4 4 3 2 1 f e e 9 9 B 9 B 9 9 9 e e b f f 0 B 0 b f 4 l l l l l l l l l l l m m m m m m m ",
"3 4 3 2 | ; ; ; ; | | | | | 1 3 3 3 2 1 f b f b 0 B b B 0 b 0 b b 9 9 f A A A e f 4 l l l l l l l l l l l m m m m m m m ",
"3 3 3 2 1 | | | 1 1 1 1 | ; ; 2 3 2 1 f b b 9 e 9 b b b 9 e e 9 9 9 f 3 f B B b 9 f 4 l l l l l l l l l l m m m m m m m ",
"3 3 3 2 2 1 | | 1 1 1 1 | = = 1 2 1 1 f 9 9 9 f c 0 b 0 c c b 9 9 f 1 2 f 0 B 0 9 f 4 4 l l l l l l l l l m m m m m m m ",
"2 1 1 2 2 2 | | 1 1 1 | | = = | 1 1 1 f b b 9 f c 0 b 0 c b 9 9 f 4 1 2 f 9 0 b b f 4 4 4 4 4 4 4 4 4 4 4 l l l m m m C ",
"1 | | 1 2 2 1 1 1 1 1 | | ; ; | | | | f b b f f 9 b b b b 9 f f f D 2 f 9 b 0 0 b f 4 4 4 4 4 4 4 4 4 4 4 l l l m m m C ",
"| = = | 2 3 2 2 1 1 1 1 1 1 1 ; ; | | 1 f e f f E f f f f f E E f F t f b 0 B 0 f l m l 4 4 4 4 4 4 4 4 4 4 l l m m m C ",
"; = - ; 1 3 4 3 2 1 1 1 2 3 3 ; ; ; | 1 f b f f E G H G E G E G E f f e B B 0 f 4 m C l 4 4 4 4 4 4 4 4 4 4 4 l m m m C ",
"1 | | 1 1 3 l 4 2 | ; ; | 1 2 | ; ; ; ; ; f f f E G H G E G E G E f e 0 e 0 f 3 3 4 l 4 2 3 3 3 3 3 3 3 4 l l m m C C C ",
"3 2 2 2 2 4 l 4 2 | ; ; | 1 1 1 | | | | | f f H E G H E H G G G G f b e 0 f 4 4 4 l l 4 3 4 4 4 4 4 4 4 4 l m m C C I I ",
"3 3 3 3 4 4 4 3 2 1 1 | 1 | | 1 1 1 1 1 1 1 f H G G H H H G G G G E f b f J F K L m m l l l l l l l l l l m m m C I I I ",
"4 4 4 4 l 4 2 2 2 2 2 1 1 | | 1 1 1 1 1 1 1 f H G G H f H E G G G E f f m M K K N l m l l l l l l m m m C C C C C I I O ",
"4 4 4 l m 4 1 2 2 3 3 2 1 | | | | 1 1 1 1 1 f E G G E f H E G G G G f l l l l P Q R 4 4 4 l l l m m m m C C C C I I O S ",
"4 4 4 4 l 4 | 1 2 3 3 3 2 | ; ; ; | | | 1 1 f E G G E f H E G E G G E f 3 4 4 4 P T K D 3 4 4 l l m m C C I I I I O S U ",
"4 3 3 3 4 3 | 1 2 3 3 2 2 1 | ; ; ; | | | 1 f E G G G H f E G E G G G f 3 4 4 4 4 3 F V D 4 4 l m m C C I O O I O O S W ",
"3 2 2 2 3 2 1 1 2 2 2 2 2 2 1 | | | | 1 2 2 f E G G G H f f E E G G G f 3 4 l l l 4 3 T X P L m C I O O O S O O O O U Y ",
"2 1 1 1 2 2 1 1 1 1 2 2 2 2 2 1 1 1 1 2 3 4 f E G G G H f f E E G G G G f l m m m l 4 4 N Z J m I O O S S S S O O S U Y ",
"3 3 3 2 1 2 3 3 2 2 2 2 2 3 3 2 2 3 4 m C m f E E G G H f 2 f E E G G G f 4 l l m m m C `  ...+.@.U S O I I I S S U W W ",
"4 3 3 2 1 1 3 3 2 2 2 2 2 3 3 3 3 3 4 l m m f E G G E H f 3 f E G G G E f 3 4 l m m C I I I I ` S U S I I I O S U U U U ",
"4 4 2 1 | | 3 3 2 2 2 2 2 3 3 4 4 3 2 2 3 3 f E E E E H f 2 1 f E E E E E f 4 l l m m C C C I O S S O I C S U U U U S S ",
"l 4 3 1 | | 3 3 2 2 2 2 2 3 3 4 4 2 1 1 2 2 f E E E E H f 1 | f E E E E E f 4 l l m m m m m C I O S I C C S S U U S S O ",
"l 4 4 3 1 2 3 3 2 2 2 2 2 3 3 3 3 2 1 2 3 2 f E E E E H f 1 1 f E E E E E E f 4 l m m m l l m C I O I m m I O S S S O O ",
"l l l l 4 3 3 3 2 2 2 2 2 3 3 1 1 1 2 3 4 2 f E E E E H f 1 1 1 f E E E E E f 4 l l m l l l m C I I I m l C I O O O O O ",
"m m m l 4 4 3 3 2 2 2 2 2 3 3 1 1 1 3 4 l 3 f E E E H H f 2 3 3 f H E E E E f 4 4 l l l l l m C O O I m l m C I I I O O ",
"C m m l 4 4 3 3 2 2 2 2 2 3 3 1 1 1 2 3 4 4 f G H H H H f 3 3 3 f H H H H E G f 4 l l m m m m I O O I C m I I I I I I C ",
"C m l 4 3 3 3 3 2 2 2 2 2 3 3 3 2 2 1 2 3 3 f G G G G G f 3 3 3 f E G G G G G f 4 l l m m m C I S S O C C O O O I I C m ",
"I C m l 3 2 1 1 1 | | 1 2 3 4 4 4 4 3 2 2 2 f f f f f f f 4 4 3 1 f f f f f f f 1 3 l C I O O O O O O O O S S S O O I C ",
"O I C l 4 3 1 1 1 1 1 1 2 3 3 4 4 4 3 2 1 1 2 f e e e f 3 4 l 4 1 | f e e e f 1 1 3 l C O O S S O I O O S S S S S O O O ",
"O I C m l 4 2 2 2 2 2 2 3 2 2 2 3 3 3 2 | | 1 f c c e f 3 4 l 4 2 1 f e c c e f 4 4 m C I O S O I I I O S S S S S S S O ",
"O I C C m l 4 4 4 4 4 4 3 2 2 2 3 3 3 2 1 1 f e #.#.$.f 3 4 l 4 3 2 f %.f #.#.f l l m C I O O O I C I I O S S S S S S S ",
"I I C C C m 4 l l l l 4 3 2 1 2 3 4 4 3 #.#.$.c e #.$.f 3 4 4 4 4 3 2 f $.#.#.$.f m m m C I O I C C C I O S S S S S S S ",
"C C C C C m l l m m l 4 3 2 1 1 2 3 3 %.&.&.&.#.#.$.%.f 3 3 3 3 4 4 2 f $.e e e f l l m m C I I C m m C I S S S S S S S ",
"m m m C C m l l l l 4 4 3 2 2 | | 1 1 f A A A A e e e f 2 1 1 2 4 4 2 f #.&.&.#.%.f l m m C I C m l m m C I I O O O O O ",
"4 l l m C m l l 4 3 3 3 2 2 2 ; ; | 1 f f f f f f f f f 1 | | 1 4 4 2 f c A A e e f m m m m C C l l m m C C C C I I I I ",
"3 4 l m C m l 4 3 2 2 2 2 3 3 | | 2 3 2 1 | ; ; ; ; | 1 | ; ; | 3 l 4 f f f f f f f C m l m C m l l m m C m m m C C C I "};
