/* XPM */
static char * sukuna_floor_xpm[] = {
"60 60 101 2",
"  	c #9A9792",
". 	c #9B9893",
"+ 	c #999691",
"@ 	c #989590",
"# 	c #989594",
"$ 	c #979492",
"% 	c #97948E",
"& 	c #97948F",
"* 	c #96938E",
"= 	c #94918C",
"- 	c #95928D",
"; 	c #93908B",
"> 	c #989591",
", 	c #979493",
"' 	c #979491",
") 	c #7F3F40",
"! 	c #98958F",
"~ 	c #989592",
"{ 	c #989593",
"] 	c #999693",
"^ 	c #F8BC9B",
"/ 	c #BF8377",
"( 	c #9C9994",
"_ 	c #989694",
": 	c #979490",
"< 	c #989692",
"[ 	c #979594",
"} 	c #989595",
"| 	c #928F8A",
"1 	c #918E89",
"2 	c #908D88",
"3 	c #8F8C87",
"4 	c #8E8B86",
"5 	c #969390",
"6 	c #95928E",
"7 	c #969491",
"8 	c #979593",
"9 	c #0A080A",
"0 	c #9C674E",
"a 	c #F5C18F",
"b 	c #100D10",
"c 	c #D19071",
"d 	c #212123",
"e 	c #141414",
"f 	c #050505",
"g 	c #B4B4BB",
"h 	c #969391",
"i 	c #969392",
"j 	c #FFFFFF",
"k 	c #510706",
"l 	c #8D8A85",
"m 	c #8C8984",
"n 	c #94928F",
"o 	c #949290",
"p 	c #918E8A",
"q 	c #93908C",
"r 	c #94918E",
"s 	c #93908F",
"t 	c #908D89",
"u 	c #93908D",
"v 	c #93908E",
"w 	c #928F8B",
"x 	c #949292",
"y 	c #94918F",
"z 	c #FFE1B7",
"A 	c #201F1F",
"B 	c #8B8883",
"C 	c #928F8D",
"D 	c #928F8C",
"E 	c #93908A",
"F 	c #080E19",
"G 	c #0C1323",
"H 	c #060911",
"I 	c #8A8782",
"J 	c #918E8D",
"K 	c #908D8B",
"L 	c #8D8A86",
"M 	c #8F8C8A",
"N 	c #898681",
"O 	c #8E8B87",
"P 	c #908D8C",
"Q 	c #8F8D8A",
"R 	c #888580",
"S 	c #918E8C",
"T 	c #8F8C88",
"U 	c #87847F",
"V 	c #918E8B",
"W 	c #86837E",
"X 	c #908E8B",
"Y 	c #85827D",
"Z 	c #908D8D",
"` 	c #8F8C8B",
" .	c #8B8884",
"..	c #8C8985",
"+.	c #8C8986",
"@.	c #8D8A89",
"#.	c #898682",
"$.	c #88182D",
"%.	c #3E0B1E",
"&.	c #631323",
"*.	c #B0273C",
"  . + @ + . .   + # $ % & @ + @ & & & @ +   + @ * = * @ + + + @ @ @   + @ & * * & @ + @ & & * - - - * * * = ; ; ; = = = ",
"  . + @ @ +   + @ > , ' & @ @ @ & & & @ @ + + @ & & ) & @ @ ) @ @ @   + @ & * & & @ + @ @ & - = = - * * * = = = = = = = ",
"  . + & & @ @ @ @ ! ~ { > @ @ @ @ & * & @ + + + +   ) ) & @ ) ) + +   + + @ & & & @ @ @ & * - = = - - * * - - = = - - = ",
"  . + & * & * & @ @ @ ] # & & @ @ & * & @ + + +   ) ^ / ) ) ^ ) ) @ ) @ + + @ @ @ & * * * * - - - - - - - * - = = - - - ",
"  (   & * * - * @ + + ] _ : * @ @ & * * @ ) ) ) ) ) ^ ^ / ) ^ / ) ) ) * & @ + @ & - = = - - * * - - = = = - = = = - - - ",
"  .   @ * - = * & +   + < [ * + + & * & @ + ) / ^ ) / ^ ^ / ^ ^ ) / ) = ) & @ & * = ; ; - - * * * - - = ; = ; ; ; = = = ",
"& @ & * = ; ; = * & @ @ ~ } :     @ @ + . . . ) / ^ / ^ ^ / / ^ / / ) ) ) * & & * = ; - * * * * - - - - = | | 1 1 2 3 3 ",
"* * * = | | ; = - * * % ' } : + + @ & @ + ) ) ) / / ^ ^ ^ ^ / / / ) ) / ) = - - - ; ; = = = = = = = = = = | | 1 2 3 3 4 ",
"- = = ; 1 1 = = = = = - 5 [ : @ @ & * & @ @ @ ) ^ ^ / / / / / / / / / / ) | ; ; ; ; ; ; ; ; ; ; ; | ; ; | | 1 1 2 3 3 4 ",
"= = = ; 1 | - - = = = = 6 7 8 : & * * * & & ) / / / ) / 9 0 / a a a / 0 ) | 1 | | ; ; ; ; ; ; | | | 1 1 1 1 1 2 2 3 3 4 ",
"- - - = | ; * * - - = - * & { { : & & & * ) ) ) ) ) 9 b 0 c c a d a d c 9 | 1 | | ; = = ; ; ; | | 1 1 1 2 2 2 2 3 3 3 4 ",
"- * * - ; = & * * * - * & & @ { { ' & & * - * 9 9 9 b b 0 c c a e d e c 9 | | | | ; = = = ; ; | | 1 1 2 2 2 2 3 3 3 4 4 ",
"* & & * = = & & & * * * & * * * $ { > * = = = - 9 b b b c f f c a e a 0 9 | | | | ; ; ; ; ; | 1 1 2 2 3 3 3 3 3 3 4 4 4 ",
"* & & * = = * * * & * * * - - - - $ , - ; | | ; 9 f f 9 c 0 g f 0 a f f ; | | 1 1 | | | | | 1 2 2 3 4 4 4 3 3 4 4 4 4 4 ",
"- - * - = = = - * * * - - = ; ; = h i ; | 2 1 | = f a f d c j k c c k f | | 1 1 2 2 2 2 1 1 2 3 4 l l m l 4 4 4 4 4 4 4 ",
"| ; ; ; = - * - - - - = ; ; ; ; ; n o p 2 2 1 ; = f c c d k a a d e d f ; | | 1 2 2 3 3 3 3 4 4 4 4 4 3 3 2 2 3 4 4 l l ",
"| ; ; = - * * - - - = = ; ; ; ; ; q r s t 1 | = - = f f e a c a a 0 c f | | | 1 2 3 3 3 3 3 4 4 4 4 3 3 3 3 3 4 4 4 4 4 ",
"; = = * & & * - - - = = ; ; ; | ; ; q u v w ; - - f f c f e a j g c f ; | | 1 1 2 3 3 3 3 4 4 l l 4 4 3 3 4 4 l l 4 4 4 ",
"; = - * @ & * - - - = = ; ; ; | ; ; ; q x q f f f 0 0 c e c e a c f ; ; | 1 1 2 3 3 3 3 4 4 l l l l 4 4 4 4 4 l l l 4 4 ",
"; = = * * * * - - - = = ; ; ; | ; ; ; q y f c a e c 0 c e e c f f 0 f f f | 1 2 3 3 3 4 4 4 l l l l 4 4 4 3 4 4 l l l l ",
"; ; ; = = - * - - - = = ; ; ; | ; ; ; | f c e z A c c 0 0 0 0 c c 0 0 0 e f 2 2 3 3 4 4 4 l l l l l l 4 3 2 3 4 l m m m ",
"| | | ; ; - * - - - = = ; ; ; | ; ; ; | f a z z A c 0 a e d z c 0 a a z e 0 f 2 3 4 4 4 l l l m m l l l 4 3 3 4 l m m B ",
"1 1 | ; = - * - - - = = ; ; ; ; ; ; ; 1 f e A A a c a a a a z a c a a a z e f 3 3 4 4 l l l m m m m l l l 4 4 l m m m m ",
"2 1 | ; = - * - - - - = ; ; ; ; ; ; | f 0 a z a c f e d a d d a c 0 a d a c f 3 4 4 4 l l l m m m m l l l l m m m m m l ",
"2 3 3 1 = - * * * * - = ; | 1 3 4 2 1 f e e A A f f e d d d c d 0 0 d c e f 0 f 2 3 4 l l l l l l l l l l B m m m m m m ",
"2 4 3 1 ; = = = = = = ; ; | 1 4 4 3 2 f c a z a f f c e e 0 0 0 z 0 z 0 0 e e f 2 4 l l l l l l l l l l l m m m m m m m ",
"3 4 3 2 | ; ; ; ; | | | | | 1 3 3 3 2 f e A A A f 0 0 c c a c a z c z a c f c f 3 4 l l l l l l l l l l l m m m m m m m ",
"3 3 3 2 1 | | | 1 1 1 1 | ; ; 2 3 2 f 0 c z z f C f 0 0 0 e e 0 c c c 0 e 0 c c f 4 4 l l l l l l l l l l m m m m m m m ",
"3 3 3 2 2 1 | | 1 1 1 1 | = = 1 2 1 f 0 a z a f D C f 0 0 c d d a c a d f 0 0 0 f 4 4 4 l l l l l l l l l m m m m m m m ",
"2 1 1 2 2 2 | | 1 1 1 | | = = | 1 1 f c c a 0 f E w s f 0 0 c d a c a d f 0 c c f 3 4 4 4 4 4 4 4 4 4 4 4 l l l m m m B ",
"1 | | 1 2 2 1 1 1 1 1 | | ; ; | | | f c a a c 0 f ; 1 f f f 0 c c c c 0 f f c c f 3 4 4 4 4 4 4 4 4 4 4 4 l l l m m m B ",
"| = = | 2 3 2 2 1 1 1 1 1 1 1 ; ; | | f a z a c f = ; f F F f f f f f F f f e f 3 l m l 4 4 4 4 4 4 4 4 4 4 l l m m m B ",
"; = - ; 1 3 4 3 2 1 1 1 2 3 3 ; ; ; | 1 f a z z e f f F G F G F G H G F f f c f 4 m B l 4 4 4 4 4 4 4 4 4 4 4 l m m m B ",
"1 | | 1 1 3 l 4 2 | ; ; | 1 2 | ; ; ; ; ; f a e a e f F G F G F G H G F f f f 3 3 4 l 4 2 3 3 3 3 3 3 3 4 l l m m B B B ",
"3 2 2 2 2 4 l 4 2 | ; ; | 1 1 1 | | | | | | f a e c f G G G G H F H G F H f f 4 4 l l 4 3 4 4 4 4 4 4 4 4 l m m B B I I ",
"3 3 3 3 4 4 4 3 2 1 1 | 1 | | 1 1 1 1 1 1 1 1 f c f F G G G G H H H G G H f J K L m m l l l l l l l l l l m m m B I I I ",
"4 4 4 4 l 4 2 2 2 2 2 1 1 | | 1 1 1 1 1 1 1 1 2 f f F G G G F H f H G G H f K K M l m l l l l l l m m m B B B B B I I N ",
"4 4 4 l m 4 1 2 2 3 3 2 1 | | | | 1 1 1 1 1 1 2 2 f G G G G F H f F G G F f l O P Q 4 4 4 l l l m m m m B B B B I I N R ",
"4 4 4 4 l 4 | 1 2 3 3 3 2 | ; ; ; | | | 1 1 1 1 f F G G F G F H f F G G F f 4 4 O S K T 3 4 4 l l m m B B I I I I N R U ",
"4 3 3 3 4 3 | 1 2 3 3 2 2 1 | ; ; ; | | | 1 1 2 f G G G F G F f H G G G F f 4 4 4 3 J V T 4 4 l m m B B I N N I N N R W ",
"3 2 2 2 3 2 1 1 2 2 2 2 2 2 1 | | | | 1 2 2 3 3 f G G G F F f f H G G G F f l l l 4 3 S X O L m B I N N N R N N N N U Y ",
"2 1 1 1 2 2 1 1 1 1 2 2 2 2 2 1 1 1 1 2 3 4 4 f G G G G F F f f H G G G F f m m m l 4 4 M Z ` m I N N R R R R N N R U Y ",
"3 3 3 2 1 2 3 3 2 2 2 2 2 3 3 2 2 3 4 m B m 4 f G G G F F f 2 f H G G F F f l l m m m B  ...+.@.#.U R N I I I R R U W W ",
"4 3 3 2 1 1 3 3 2 2 2 2 2 3 3 3 3 3 4 l m m 4 f F G G G F f 2 f H F G G F f 4 l m m B I I I I  .R U R I I I N R U U U U ",
"4 4 2 1 | | 3 3 2 2 2 2 2 3 3 4 4 3 2 2 3 3 f F F F F F f 2 1 f H F F F F f 4 l l m m B B B I N R R N I B R U U U U R R ",
"l 4 3 1 | | 3 3 2 2 2 2 2 3 3 4 4 2 1 1 2 2 f F F F F F f 1 | f H F F F F f 4 l l m m m m m B I N R I B B R R U U R R N ",
"l 4 4 3 1 2 3 3 2 2 2 2 2 3 3 3 3 2 1 2 3 f F F F F F F f 1 1 f H F F F F f 4 4 l m m m l l m B I N I m m I N R R R N N ",
"l l l l 4 3 3 3 2 2 2 2 2 3 3 1 1 1 2 3 4 f F F F F F f 1 1 1 f H F F F F f 3 4 l l m l l l m B I I I m l B I N N N N N ",
"m m m l 4 4 3 3 2 2 2 2 2 3 3 1 1 1 3 4 l f F F F F H f 1 2 3 f H H F F F f 3 4 4 l l l l l m B N N I m l m B I I I N N ",
"B m m l 4 4 3 3 2 2 2 2 2 3 3 1 1 1 2 3 f G F H H H H f 2 3 3 f H H H H G f 3 3 4 l l m m m m I N N I B m I I I I I I B ",
"B m l 4 3 3 3 3 2 2 2 2 2 3 3 3 2 2 1 2 f G G G G G F f 3 3 3 f G G G G G f 2 3 4 l l m m m B I R R N B B N N N I I B m ",
"I B m l 3 2 1 1 1 | | 1 2 3 4 4 4 4 3 2 f f f f f f f 2 3 4 4 f f f f f f f | | 1 3 l B I N N N N N N N N R R R N N I B ",
"N I B l 4 3 1 1 1 1 1 1 2 3 3 4 4 4 3 2 1 f e e e f 2 2 3 4 l 4 f e e e f 2 1 1 1 3 l B N N R R N I N N R R R R R N N N ",
"N I B m l 4 2 2 2 2 2 2 3 2 2 2 3 3 3 2 f e d d e f 2 2 3 4 l 4 f e d d f 4 4 4 4 4 m B I N R N I I I N R R R R R R R N ",
"N I B B m l 4 4 4 4 4 4 3 2 2 2 3 3 3 2 f $.$.f %.f 3 3 3 4 l 4 f &.$.$.e f m l l l m B I N N N I B I I N R R R R R R R ",
"I I B B B m 4 l l l l 4 3 2 1 2 3 4 4 f &.$.$.&.f 3 3 3 3 4 4 4 f &.$.e d &.$.$.l m m m B I N I B B B I N R R R R R R R ",
"B B B B B m l l m m l 4 3 2 1 1 2 3 3 f e e e &.f 2 2 3 3 3 3 3 f %.&.$.$.*.*.*.%.l l m m B I I B m m B I R R R R R R R ",
"m m m B B m l l l l 4 4 3 2 2 | | 1 f %.$.*.*.$.f 1 2 2 2 1 1 2 f e e e A A A A f 4 l m m B I B m l m m B I I N N N N N ",
"4 l l m B m l l 4 3 3 3 2 2 2 ; ; | f e e A A d f ; | 1 1 | | 1 f f f f f f f f f l m m m m B B l l m m B B B B I I I I ",
"3 4 l m B m l 4 3 2 2 2 2 3 3 | | 2 f f f f f f f ; | 1 | ; ; | 3 l 4 4 4 4 4 3 4 m B m l m B m l l m m B m m m B B B I "};
