/* XPM */
static char * portal_darken_xpm[] = {
"60 60 507 2",
"  	c #8D8A85",
". 	c #555363",
"+ 	c #53525E",
"@ 	c #54525E",
"# 	c #555364",
"$ 	c #53515D",
"% 	c #4F4E53",
"& 	c #4A494E",
"* 	c #49484E",
"= 	c #48474D",
"- 	c #545363",
"; 	c #504F54",
"> 	c #4D4C50",
", 	c #363540",
"' 	c #2F2E3C",
") 	c #2F2D3C",
"! 	c #2B293A",
"~ 	c #282638",
"{ 	c #52505A",
"] 	c #4F4F54",
"^ 	c #4E4E53",
"/ 	c #4E4E51",
"( 	c #4A4A4F",
"_ 	c #33313E",
": 	c #252236",
"< 	c #211E34",
"[ 	c #201D34",
"} 	c #211F35",
"| 	c #242236",
"1 	c #32313E",
"2 	c #535260",
"3 	c #515058",
"4 	c #434349",
"5 	c #383742",
"6 	c #393842",
"7 	c #373641",
"8 	c #2A2839",
"9 	c #292738",
"0 	c #2A2738",
"a 	c #282537",
"b 	c #272437",
"c 	c #515057",
"d 	c #4D4D51",
"e 	c #47464C",
"f 	c #393943",
"g 	c #292739",
"h 	c #242136",
"i 	c #252336",
"j 	c #2C2A3B",
"k 	c #34333F",
"l 	c #373540",
"m 	c #373640",
"n 	c #282538",
"o 	c #545260",
"p 	c #4E4D51",
"q 	c #45454B",
"r 	c #343340",
"s 	c #34323F",
"t 	c #2D2B3B",
"u 	c #252437",
"v 	c #252337",
"w 	c #2C2B3B",
"x 	c #414148",
"y 	c #44444A",
"z 	c #45444B",
"A 	c #292839",
"B 	c #393843",
"C 	c #504F53",
"D 	c #545261",
"E 	c #46454C",
"F 	c #393742",
"G 	c #2C2B3A",
"H 	c #1D1A33",
"I 	c #2D2C3B",
"J 	c #33323E",
"K 	c #3D3C46",
"L 	c #484954",
"M 	c #4D4F5C",
"N 	c #4E505E",
"O 	c #4F505F",
"P 	c #302F3D",
"Q 	c #2B2939",
"R 	c #4B4A4F",
"S 	c #515056",
"T 	c #4F4E52",
"U 	c #2C2A3A",
"V 	c #353440",
"W 	c #403F48",
"X 	c #403F49",
"Y 	c #414049",
"Z 	c #4C5065",
"` 	c #4C5371",
" .	c #4C5476",
"..	c #4E5678",
"+.	c #222035",
"@.	c #535160",
"#.	c #504F55",
"$.	c #4E4E52",
"%.	c #383642",
"&.	c #2E2C3C",
"*.	c #383741",
"=.	c #3A3944",
"-.	c #43434E",
";.	c #494957",
">.	c #494A59",
",.	c #494B5B",
"'.	c #4A4C5C",
").	c #4F5469",
"!.	c #495376",
"~.	c #42517F",
"{.	c #435384",
"].	c #465587",
"^.	c #44434F",
"/.	c #3C3B45",
"(.	c #383641",
"_.	c #232135",
":.	c #1F1D34",
"<.	c #44444B",
"[.	c #4F4E5D",
"}.	c #46454F",
"|.	c #43424A",
"1.	c #373642",
"2.	c #3C3B44",
"3.	c #46464F",
"4.	c #4A4D60",
"5.	c #484E6D",
"6.	c #464E74",
"7.	c #485178",
"8.	c #495279",
"9.	c #4A557E",
"0.	c #475786",
"a.	c #44588B",
"b.	c #455A8E",
"c.	c #465B8F",
"d.	c #475785",
"e.	c #4A557D",
"f.	c #495278",
"g.	c #3B3943",
"h.	c #31303E",
"i.	c #4F4D5D",
"j.	c #464550",
"k.	c #403F47",
"l.	c #3D3C45",
"m.	c #32303E",
"n.	c #302F3C",
"o.	c #4B4E5F",
"p.	c #49506F",
"q.	c #434E7B",
"r.	c #425083",
"s.	c #455588",
"t.	c #465689",
"u.	c #46578A",
"v.	c #46598C",
"w.	c #465A8E",
"x.	c #475C90",
"y.	c #475E91",
"z.	c #45578B",
"A.	c #445386",
"B.	c #445487",
"C.	c #1D1A32",
"D.	c #1C1932",
"E.	c #3F3E46",
"F.	c #2E2D3C",
"G.	c #44444E",
"H.	c #4A4D5F",
"I.	c #484F6F",
"J.	c #444E7A",
"K.	c #414F82",
"L.	c #425489",
"M.	c #45598E",
"N.	c #44578C",
"O.	c #43558A",
"P.	c #45598C",
"Q.	c #475D90",
"R.	c #45588C",
"S.	c #435389",
"T.	c #425388",
"U.	c #43558B",
"V.	c #44588D",
"W.	c #494C5E",
"X.	c #3F3F49",
"Y.	c #505053",
"Z.	c #4F4E56",
"`.	c #545264",
" +	c #474651",
".+	c #3E3D46",
"++	c #3D3D4A",
"@+	c #4A4C5F",
"#+	c #4A5070",
"$+	c #424D7B",
"%+	c #404F83",
"&+	c #435489",
"*+	c #45588D",
"=+	c #415387",
"-+	c #3F4E83",
";+	c #455B8E",
">+	c #45598D",
",+	c #415186",
"'+	c #435589",
")+	c #494F6F",
"!+	c #424458",
"~+	c #363645",
"{+	c #2E2C3B",
"]+	c #484F70",
"^+	c #414F83",
"/+	c #445489",
"(+	c #435388",
"_+	c #3D4D81",
":+	c #3A487C",
"<+	c #3E4F82",
"[+	c #44598C",
"}+	c #43578A",
"|+	c #3E5083",
"1+	c #43578B",
"2+	c #474F70",
"3+	c #3F3F4A",
"4+	c #545263",
"5+	c #474550",
"6+	c #2F2D3B",
"7+	c #43444E",
"8+	c #425488",
"9+	c #3E4C82",
"0+	c #3D4B80",
"a+	c #3A487D",
"b+	c #374578",
"c+	c #364576",
"d+	c #3B4C7D",
"e+	c #43598A",
"f+	c #415688",
"g+	c #3B4D7D",
"h+	c #3A4C7C",
"i+	c #405385",
"j+	c #3F3E47",
"k+	c #535163",
"l+	c #494753",
"m+	c #42414A",
"n+	c #43424C",
"o+	c #3F4F83",
"p+	c #3A497D",
"q+	c #39477B",
"r+	c #38467A",
"s+	c #374579",
"t+	c #354374",
"u+	c #334371",
"v+	c #384B78",
"w+	c #415888",
"x+	c #405685",
"y+	c #384B77",
"z+	c #344572",
"A+	c #3A4B7C",
"B+	c #405386",
"C+	c #455A8D",
"D+	c #44568A",
"E+	c #474A5C",
"F+	c #3D3C47",
"G+	c #383743",
"H+	c #535162",
"I+	c #363541",
"J+	c #353340",
"K+	c #3F3F4C",
"L+	c #494C5F",
"M+	c #3F5083",
"N+	c #38477A",
"O+	c #354475",
"P+	c #344373",
"Q+	c #344372",
"R+	c #31416E",
"S+	c #30406A",
"T+	c #364873",
"U+	c #415787",
"V+	c #3F5483",
"W+	c #354772",
"X+	c #2F3E68",
"Y+	c #344472",
"Z+	c #3D5182",
"`+	c #455B8D",
" @	c #43568A",
".@	c #405186",
"+@	c #425387",
"@@	c #474E6E",
"#@	c #43475B",
"$@	c #3D3C49",
"%@	c #43414C",
"&@	c #535263",
"*@	c #4C4B59",
"=@	c #41404A",
"-@	c #33323F",
";@	c #494A57",
">@	c #44578B",
",@	c #3A4A7C",
"'@	c #30406B",
")@	c #2F4069",
"!@	c #2E3D66",
"~@	c #2D3C64",
"{@	c #33436D",
"]@	c #3E5281",
"^@	c #3D517F",
"/@	c #364773",
"(@	c #31416B",
"_@	c #354773",
":@	c #3C527F",
"<@	c #425889",
"[@	c #3C4C80",
"}@	c #3E4D81",
"|@	c #434F7B",
"1@	c #464D6C",
"2@	c #424351",
"3@	c #4D4B59",
"4@	c #424149",
"5@	c #405487",
"6@	c #2E3E66",
"7@	c #2C3A61",
"8@	c #2B3960",
"9@	c #2A385E",
"0@	c #2E3C64",
"a@	c #354671",
"b@	c #394B78",
"c@	c #3A4D7A",
"d@	c #3B4F7C",
"e@	c #3D517E",
"f@	c #3D5280",
"g@	c #3C517F",
"h@	c #39487B",
"i@	c #3E4D82",
"j@	c #4E4C5B",
"k@	c #262337",
"l@	c #3F5484",
"m@	c #394B77",
"n@	c #314068",
"o@	c #2C385F",
"p@	c #29355B",
"q@	c #28335A",
"r@	c #283359",
"s@	c #2A355B",
"t@	c #33426B",
"u@	c #3D507E",
"v@	c #425788",
"w@	c #415786",
"x@	c #3C507D",
"y@	c #344471",
"z@	c #384679",
"A@	c #4E4C5A",
"B@	c #455387",
"C@	c #43548A",
"D@	c #354774",
"E@	c #3B4E7B",
"F@	c #303F67",
"G@	c #283357",
"H@	c #252F53",
"I@	c #252E52",
"J@	c #242E51",
"K@	c #2B375C",
"L@	c #33436C",
"M@	c #374975",
"N@	c #34446E",
"O@	c #2F3E66",
"P@	c #303F69",
"Q@	c #33426F",
"R@	c #39477A",
"S@	c #3E4C81",
"T@	c #404049",
"U@	c #1E1B33",
"V@	c #302E3C",
"W@	c #2A2739",
"X@	c #363442",
"Y@	c #484854",
"Z@	c #425188",
"`@	c #3B497D",
" #	c #364675",
".#	c #344672",
"+#	c #32426C",
"@#	c #33426C",
"##	c #3E5382",
"$#	c #34456E",
"%#	c #273155",
"&#	c #232B4E",
"*#	c #232C4E",
"=#	c #222B4C",
"-#	c #242D4F",
";#	c #273255",
">#	c #2A365B",
",#	c #2B375E",
"'#	c #2A375D",
")#	c #2D3B63",
"!#	c #343240",
"~#	c #1F1C33",
"{#	c #201E34",
"]#	c #3F3F4D",
"^#	c #4B4F65",
"/#	c #3A487B",
"(#	c #344573",
"_#	c #394C7A",
":#	c #364872",
"<#	c #31406A",
"[#	c #354670",
"}#	c #222A4C",
"|#	c #222A4B",
"1#	c #212747",
"2#	c #212847",
"3#	c #273156",
"4#	c #29355C",
"5#	c #2C3B62",
"6#	c #374679",
"7#	c #444555",
"8#	c #4B5271",
"9#	c #3F4D82",
"0#	c #374778",
"a#	c #374A78",
"b#	c #3B507E",
"c#	c #364771",
"d#	c #303F68",
"e#	c #3C507E",
"f#	c #405584",
"g#	c #34466F",
"h#	c #252F52",
"i#	c #212848",
"j#	c #202747",
"k#	c #1F2442",
"l#	c #202644",
"m#	c #222A4A",
"n#	c #232C4D",
"o#	c #252E51",
"p#	c #31416A",
"q#	c #354771",
"r#	c #364974",
"s#	c #364775",
"t#	c #354575",
"u#	c #44558A",
"v#	c #282637",
"w#	c #444557",
"x#	c #445589",
"y#	c #3B4D7E",
"z#	c #3D5281",
"A#	c #374974",
"B#	c #303E67",
"C#	c #2F3D65",
"D#	c #3C4F7C",
"E#	c #3F5482",
"F#	c #33436B",
"G#	c #242B4C",
"H#	c #1E2342",
"I#	c #1E213F",
"J#	c #1F2443",
"K#	c #22294A",
"L#	c #273356",
"M#	c #32416A",
"N#	c #3F5583",
"O#	c #3E5381",
"P#	c #354673",
"Q#	c #454658",
"R#	c #3C4D7F",
"S#	c #3F5383",
"T#	c #374873",
"U#	c #34446D",
"V#	c #3A4D79",
"W#	c #3A4D78",
"X#	c #2F3D63",
"Y#	c #222848",
"Z#	c #1D203D",
"`#	c #1E2341",
" $	c #212949",
".$	c #273256",
"+$	c #2F3E65",
"@$	c #3E527F",
"#$	c #4D4C5A",
"$$	c #3E3D45",
"%$	c #1D1932",
"&$	c #484E6E",
"*$	c #221F35",
"=$	c #262437",
"-$	c #45495D",
";$	c #464D6D",
">$	c #44444F",
",$	c #45454E",
"'$	c #424559",
")$	c #3B3A44",
"!$	c #211F34",
"~$	c #41414C",
"{$	c #414047",
"]$	c #272538",
"^$	c #312F3D",
"/$	c #272537",
"($	c #292638",
"_$	c #414048",
":$	c #302E3D",
"<$	c #232136",
"[$	c #2E2D3B",
"}$	c #232035",
"|$	c #504E5D",
"1$	c #45444F",
"2$	c #504F5F",
"3$	c #44434D",
"4$	c #3F3E48",
"5$	c #495276",
"6$	c #4E5369",
"7$	c #514F5F",
"8$	c #4C5271",
"9$	c #474B62",
"0$	c #40404D",
"a$	c #3F3F47",
"b$	c #3A3943",
"c$	c #42434F",
"d$	c #3D3D4B",
"e$	c #1E1A33",
"f$	c #404047",
"g$	c #1F1C34",
"h$	c #32303D",
"                                                                                                                        ",
"                                                                                                                        ",
"                                                                                                                        ",
"                                            . + + + + + @ + + + + + + + + .                                             ",
"                                          # $ % & * * = = * * * * * * & % $ #                                           ",
"                                      . - $ ; > , ' ) ! ~ ) ) ) ) ) ' , > ; $ - .                                       ",
"                                # # # { ] ^ / ( _ : < < [ } } } } < | 1 ( / ^ ] { # # #                                 ",
"                              2 3 3 3 ; 4 5 6 7 ) 8 9 0 0 9 9 9 9 0 a b , 6 5 4 ; 3 3 3 2                               ",
"                            2 c d e e e f g h i j k l l l l l l l m _ n : h 9 6 e e e d c 2                             ",
"                          o 3 p q 5 r s t u | v w 6 x y z z z z y x 6 t u | A 1 7 r B ( C 3 o                           ",
"                        D c p E F G [ H | I 1 1 J K L M N O O N M L K J 1 1 1 P Q h ! x R p c D                         ",
"                      D S T z 7 t U i h V W W X Y L Z `  ..... .` Z L Y X W W B ' t +.Q 5 z T S D                       ",
"                    @.#.$.z %.8 : &.*.=.-.;.>.,.'.).!.~.{.].].{.~.!.).'.,.>.;.^./.(._.:.8 7 <.$.S D                     ",
"                  [.}.z |.1.) ! 8 ' 2.3.4.5.6.7.8.9.0.a.b.c.c.b.a.d.e.f.7.6.5.4.3.g.h H < : h.<.T c o                   ",
"                i.j.k.k.l.m.n ~ n.6 -.o.p.q.r.s.t.u.v.w.c.x.y.y.c.z.A.A.B.r.q.p.o.-.V | C.D.: 7 z p 3 o                 ",
"              [.j.k.E.5 J F.~ n k G.H.I.J.K.L.M.c.b.N.O.O.P.Q.x.R.S.T.U.V.L.K.J.I.W.X.t | i v 8 5 R Y.Z.[.              ",
"            `. +k..+F t : 8 n.k ++@+#+$+%+&+*+w.c.P.=+-+-+=+;+>+T.,+'+*+M.R.&+%+$+)+!+~+m.P 8 | ! x ( e  +`.            ",
"            `. +k.B {+t t ) 6 G.@+]+$+^+O.>+R./+(+,+_+:+:+<+[+}+|+|+1+>+N.>+>+O.^+$+2+!+3+B ' ! h ! B k. +`.            ",
"            4+5+k.5 t t 6+6 7+H.#+$+%+&+*+R.8+-+9+0+a+b+c+d+e+f+g+h+i+}+N.>+>+*+&+%+$+)+W.-.F ) ! | s j+5+4+            ",
"          k+l+m+k.F Q : &.n+o.I.$+^+&+>+>+'+o+p+q+r+s+t+u+v+w+x+y+z+A+B+C+R.D+R.>+&+^+$+)+E+F+G+' Q g r m+l+k+          ",
"          H+n+B I+1 ) J+K+L+p.J.%+O.*+>+>+D+M+N+O+P+Q+R+S+T+U+V+W+X+Y+Z+`+ @.@+@R.*+O.%+J.@@#@$@5 Q [ v k %@H+          ",
"        &@*@=@-@A A 1 W ;@5.q.K.&+>+R.'+ @>@B+,@Y+'@)@!@~@{@]@^@/@(@_@:@<@i+[@}@T.R.>+&+K.|@1@2@.+9 H D.g =@*@&@        ",
"      k+3@4@k.-@: | 1 W >.6.r.L.R.R.T.o+|+B+5@Z+/@6@7@8@9@0@a@b@c@d@e@f@g@h+h@:+i@T.R.*+L.r.6.>.W 9 H H 8 j+4@3@k+      ",
"      j@Y j+l._ k@u 1 X ,.7.B.V.*+T.i@:+N+,@Z+l@m@n@o@p@q@r@s@t@u@v@w@x@W+y@O+z@p+-+/+w.M.s.7.,.W 9 H H g l.j+Y j@      ",
"      A@l.1 n.{+U U 1 Y '.f.B@C@T.i@a+z@O+Y+D@b@E@m@F@G@H@I@J@K@L@M@M@N@O@P@Q@O+R@S@(+c.c.t.8.'.T@8 U@U@h V@1 l.A@      ",
"      A@l.F.| +.W@t X@Y@).e.B@Z@-+`@s+c+ #.#+#@#u@##$#%#&#*#=#-#;#>#,#,#'#)#S+Q+r+0+,+P.b.u.9.).Y@!#8 k@~#| F.l.A@      ",
"      A@l.&.{#H ~ 1 ]#^#!.d.z.T.i@/#O+(#_#d@:#<#e@x+[#%#}#|#1#2#|#-#I@3#4#5#S+Q+6#a+_+=+N.v.0.!.^#]#_ ~ U@{#&.l.A@      ",
"      A@l.&.< U@~ , 7#8#~.a.w.'+9#:+0#a#b#x@c#d#e#f#g#h#i#j#k#l#m#n#o#'#p#q#r#s#t#b+a+-+u#w.a.~.8#7#, ~ U@< &.l.A@      ",
"      A@l.&.< U@v#, w# .{.b.c.x#i@p+y#z#e#A#B#C#D#E#F#G#H#H#I#J#K#*#L#M#d@N#O#_#P#O+q+i@x#c.b.{. .w#, v#U@< &.l.A@      ",
"      A@l.&.< U@v#, Q#..].c.c.'+i@`@R#S#e#T#t@U#V#W#X#Y#Z#Z#Z#`# $.$+$A#@$f#V+x@v+0#:+9#'+c.c.]...Q#, v#U@< &.l.A@      ",
"      A@l.&.< U@v#, Q#..].c.c.'+9#:+0#v+x@V+f#@$A#+$.$ $`#Z#Z#Z#Y#X#W#V#U#t@T#e#S#R#`@i@'+c.c.]...Q#, v#U@< &.l.A@      ",
"      A@l.&.< U@v#, w# .{.b.c.x#i@q+O+P#_#O#N#d@M#L#*#K#J#I#H#H#G#F#E#D#C#B#A#e#z#y#p+i@x#c.b.{. .w#, v#U@< &.l.A@      ",
"      A@l.&.< U@~ , 7#8#~.a.w.u#-+a+b+t#s#r#q#p#'#o#n#m#l#k#j#i#h#g#f#e#d#c#x@b#a#0#:+9#'+w.a.~.8#7#, ~ U@< &.l.A@      ",
"      A@l.&.{#U@~ _ ]#^#!.0.v.N.=+_+a+6#Q+S+5#4#3#I@-#|#2#1#|#}#%#[#x+e@<#:#d@_#(#O+/#i@T.z.d.!.^#]#1 ~ H {#{+l.A@      ",
"      A@l.F.| ~#k@8 !#Y@).9.u.b.P.,+0+r+Q+S+)#'#,#,#>#;#-#=#*#&#%#$###u@@#+#.# #c+s+`@-+Z@B@e.).Y@X@t W@+.i _ .+A@      ",
"      A@l.1 V@h U@U@8 T@'.8.t.c.c.(+S@R@O+Q@P@O@N@M@M@L@K@J@I@H@G@F@m@E@b@D@Y+O+z@a+i@T.C@B@f.'.Y 1 U U t 1 l.W #$      ",
"      j@Y j+l.g H H 9 W ,.7.s.M.w./+-+p+z@O+y@W+x@w@v@u@t@s@r@q@p@o@n@m@l@Z+,@N+:+i@T.*+V.B.7.,.X 1 u k@_ $$W 4@j@      ",
"      k+3@4@j+8 H H 9 W >.6.r.L.*+R.T.i@:+h@h+g@f@e@d@c@b@a@0@9@8@7@6@/@Z+5@B+|+o+T.R.R.L.r.6.>.W 1 | : -@k.4@3@k+      ",
"        &@*@=@' } %$9 j+;.&$q.K.&+>+R.T.}@[@i+<@:@_@(@/@^@]@{@~@!@)@'@Y+,@B+>@ @'+R.>+&+K.q.5.;.W 1 A 8 -@=@*@&@        ",
"          H+n+B &.*$=$B ^.-$;$J.%+O.*+R.+@.@ @`+Z+Y+X+W+V+U+T+S+R+Q+P+O+N+M+D+>+>+*+O.%+J.p.4.>$B G ! m.B n+H+          ",
"          k+l+m+7 ~ +.F.G+F+E+)+$+^+&+>+R.D+R.C+B+A+z+y+x+w+v+u+t+s+r+q+p+o+'+>+>+&+^+$+I.o.,$B F.+.~ 7 m+l+k+          ",
"            4+5+7 ~ *$! {+F -.W.)+$+%+&+*+>+>+N.}+i+h+g+f+e+d+c+b+a+0+9+-+8+R.*+&+%+$+#+H.7+F {+! *$~ 7 5+4+            ",
"            `. +7 8 < < } U B 3+'$]+$+^+O.>+>+N.>+1+|+|+}+[+<+:+:+_+,+(+/+R.>+O.^+$+]+H.G.6 U } < < 8 7  +`.            ",
"            `. +.+)$, 8 [ !$U 7 ~$H.#+$+%+&+R.M.*+'+,+T.>+;+=+-+-+=+P.c.w.*+&+%+$+#+H.>$B U !$[ 8 , )$.+ +`.            ",
"              [.j.{$j+7 8 {#]$^$B G.H.I.J.K.L.V.U.T.S.R.x.Q.P.O.O.N.b.c.M.L.K.J.I.H.,$.+k /$< ($) l.{$j.[.              ",
"                i.j._$.+:$+.<$]$U 6 -.o.p.q.r.B.A.A.z.c.y.y.x.c.w.v.u.t.s.r.q.p.o.-.B l [$}$}$) 7 .+j.i.                ",
"                  |$1$j+J+~ }$< +.' 2.}.4.5.6.7.f.e.d.a.b.c.c.b.a.0.9.8.7.6.5.4.3.2.V@8 k@+.~ V k.1$|$                  ",
"                    2$3$4$V {+=$*$t 6 /.^.;.>.,.'.).!.~.{.].].{.~.5$6$'.,.>.;.-.=.(.t +.W@P V 4$3$2$                    ",
"                    # 7$3$k.m.}$[ }$t ' B W W X Y L ^#8# ..... .8$9$0$X W W a$V h _.< {#-@.+k.3$7$#                     ",
"                      # 2$1$l.b$s [ *$+.G 1 1 1 J K c$7#w#Q#Q#w#7#d$:$8 9 9 9 | e$H [ s .+_$1$2$#                       ",
"                          |$j._$)$8 ~ ~ ! A | v U _ V , , , , , , _ 8 U@%$%$}$t k k J+K f$j.|$                          ",
"                            i.j..+7 7 7 m.8 : k@U g v#~ v#v#v#v#~ ~ k@g$| i 8 I+k.k.k.k.j.i.                            ",
"                              [. + +5+m+B -@-@_ {++.H U@U@U@U@U@U@U@~#i h$-@-@B m+5+ + +[.                              ",
"                                `.`.4+l+n+=@k.l.n.| {#< < < < < < {#| V@l.k.=@n+l+4+`.`.                                ",
"                                      k+H+*@4@j+1 F.&.&.&.&.&.&.&.&.F.1 j+4@*@H+k+                                      ",
"                                          &@3@Y l.l.l.l.l.l.l.l.l.l.l.l.Y 3@&@                                          ",
"                                            k+j@A@A@A@A@A@A@A@A@A@A@A@A@j@k+                                            ",
"                                                                                                                        ",
"                                                                                                                        ",
"                                                                                                                        "};
