/* XPM */
static char * portal_inactivate_xpm[] = {
"60 60 512 2",
"  	c #8D8A85",
". 	c #565464",
"+ 	c #595863",
"@ 	c #5A5962",
"# 	c #5F5F5F",
"$ 	c #5E5E5E",
"% 	c #5F5E5F",
"& 	c #5C5C5C",
"* 	c #5A5A5A",
"= 	c #595959",
"- 	c #555465",
"; 	c #565465",
"> 	c #5C5B61",
", 	c #5D5D5F",
"' 	c #5D5D5E",
") 	c #555555",
"! 	c #545454",
"~ 	c #585763",
"{ 	c #5D5C61",
"] 	c #5D5C60",
"^ 	c #5E5E5F",
"/ 	c #585858",
"( 	c #565656",
"_ 	c #5E5E5D",
": 	c #5D5D5D",
"< 	c #575756",
"[ 	c #5D5D60",
"} 	c #5F5F5E",
"| 	c #575757",
"1 	c #565657",
"2 	c #585959",
"3 	c #5A5A5B",
"4 	c #585663",
"5 	c #585857",
"6 	c #5F5F61",
"7 	c #626368",
"8 	c #62646C",
"9 	c #63646E",
"0 	c #64656F",
"a 	c #63646C",
"b 	c #5E5F64",
"c 	c #585859",
"d 	c #575664",
"e 	c #5B5B5C",
"f 	c #5F5F60",
"g 	c #606061",
"h 	c #626262",
"i 	c #727278",
"j 	c #777884",
"k 	c #77798A",
"l 	c #787B8D",
"m 	c #77798D",
"n 	c #76798C",
"o 	c #767889",
"p 	c #6C6E7A",
"q 	c #5E5F65",
"r 	c #6B6B70",
"s 	c #77777F",
"t 	c #777880",
"u 	c #787881",
"v 	c #787982",
"w 	c #787A87",
"x 	c #81818F",
"y 	c #8E8D99",
"z 	c #92909C",
"A 	c #898895",
"B 	c #888794",
"C 	c #898794",
"D 	c #80808E",
"E 	c #757785",
"F 	c #595858",
"G 	c #595A5E",
"H 	c #77767F",
"I 	c #888691",
"J 	c #878591",
"K 	c #898793",
"L 	c #918F9A",
"M 	c #8A8995",
"N 	c #8D8B97",
"O 	c #8E8C98",
"P 	c #8B8995",
"Q 	c #8C8B97",
"R 	c #908E99",
"S 	c #888793",
"T 	c #58595E",
"U 	c #656773",
"V 	c #7F7E8B",
"W 	c #8C8A96",
"X 	c #93919C",
"Y 	c #95939E",
"Z 	c #84838E",
"` 	c #7A7982",
" .	c #76747C",
"..	c #5E5D5E",
"+.	c #5A5B5F",
"@.	c #636572",
"#.	c #787988",
"$.	c #868593",
"%.	c #908E9A",
"&.	c #868590",
"*.	c #616165",
"=.	c #575758",
"-.	c #595A5F",
";.	c #636570",
">.	c #878693",
",.	c #6E6D76",
"'.	c #5C5C61",
").	c #5D5D61",
"!.	c #686974",
"~.	c #797A8A",
"{.	c #868490",
"].	c #868491",
"^.	c #8A8894",
"/.	c #8D8B96",
"(.	c #888692",
"_.	c #6B6B74",
":.	c #57585E",
"<.	c #70717C",
"[.	c #8C8C98",
"}.	c #918F9B",
"|.	c #8F8D99",
"1.	c #7B7987",
"2.	c #636172",
"3.	c #656374",
"4.	c #817F8C",
"5.	c #92909B",
"6.	c #797A89",
"7.	c #646773",
"8.	c #7B7C8B",
"9.	c #8D8C98",
"0.	c #747280",
"a.	c #6A6877",
"b.	c #646272",
"c.	c #5A586A",
"d.	c #5B596B",
"e.	c #666474",
"f.	c #84828E",
"g.	c #8A8893",
"h.	c #807E8A",
"i.	c #8F8D98",
"j.	c #95939F",
"k.	c #5A5A60",
"l.	c #72717B",
"m.	c #868592",
"n.	c #94929D",
"o.	c #6A6878",
"p.	c #4E4C5F",
"q.	c #474558",
"r.	c #49465A",
"s.	c #474559",
"t.	c #686674",
"u.	c #7D7B87",
"v.	c #7D7B88",
"w.	c #757381",
"x.	c #646270",
"y.	c #646271",
"z.	c #6B6977",
"A.	c #878592",
"B.	c #646673",
"C.	c #59595F",
"D.	c #5C5D66",
"E.	c #817F8B",
"F.	c #7B7986",
"G.	c #5C5A6A",
"H.	c #403D52",
"I.	c #353249",
"J.	c #363349",
"K.	c #36334A",
"L.	c #5D5B69",
"M.	c #898792",
"N.	c #676572",
"O.	c #302D45",
"P.	c #322F47",
"Q.	c #424053",
"R.	c #85838F",
"S.	c #757685",
"T.	c #5B5C65",
"U.	c #5C5D69",
"V.	c #807F8B",
"W.	c #83818E",
"X.	c #626071",
"Y.	c #413F53",
"Z.	c #37344A",
"`.	c #353248",
" +	c #312E44",
".+	c #5C5A68",
"++	c #767480",
"@+	c #7E7C87",
"#+	c #7F7D88",
"$+	c #84828D",
"%+	c #7A7884",
"&+	c #585564",
"*+	c #3C394E",
"=+	c #504E61",
"-+	c #545264",
";+	c #787683",
">+	c #5B5C5C",
",+	c #5D5E6A",
"'+	c #7C7A87",
")+	c #6C6A79",
"!+	c #464356",
"~+	c #302D43",
"{+	c #1C1831",
"]+	c #343147",
"^+	c #3A374C",
"/+	c #3D3B4F",
"(+	c #3F3C50",
"_+	c #3F3D50",
":+	c #3E3B4F",
"<+	c #39364C",
"[+	c #72707D",
"}+	c #5E606B",
"|+	c #5B596A",
"1+	c #454356",
"2+	c #5E5C6D",
"3+	c #84828F",
"4+	c #8B8994",
"5+	c #595766",
"6+	c #333047",
"7+	c #302C43",
"8+	c #1A162F",
"9+	c #322F45",
"0+	c #2B283E",
"a+	c #231F36",
"b+	c #6F6D7B",
"c+	c #5C5D64",
"d+	c #6E717F",
"e+	c #858491",
"f+	c #7A7886",
"g+	c #535163",
"h+	c #3A374D",
"i+	c #423F53",
"j+	c #7F7D89",
"k+	c #716F7E",
"l+	c #14102B",
"m+	c #1D1931",
"n+	c #1E1B33",
"o+	c #2E2B41",
"p+	c #1E1A32",
"q+	c #1F1B33",
"r+	c #17132D",
"s+	c #4A4859",
"t+	c #716F7C",
"u+	c #6D6E7B",
"v+	c #7F7F8D",
"w+	c #777684",
"x+	c #73717F",
"y+	c #454256",
"z+	c #38354B",
"A+	c #444256",
"B+	c #777582",
"C+	c #8F8D97",
"D+	c #82808C",
"E+	c #4C495B",
"F+	c #120C29",
"G+	c #0C0626",
"H+	c #1D1932",
"I+	c #252239",
"J+	c #242138",
"K+	c #221E36",
"L+	c #100A28",
"M+	c #0A0425",
"N+	c #0B0525",
"O+	c #16112C",
"P+	c #27243B",
"Q+	c #434055",
"R+	c #6D6B79",
"S+	c #848390",
"T+	c #82818A",
"U+	c #67676B",
"V+	c #777989",
"W+	c #525062",
"X+	c #333046",
"Y+	c #2D2A40",
"Z+	c #5C5968",
"`+	c #73707D",
" @	c #797782",
".@	c #787682",
"+@	c #423F54",
"@@	c #120D29",
"#@	c #0E0827",
"$@	c #19152E",
"%@	c #1D1A32",
"&@	c #0D0626",
"*@	c #17122D",
"=@	c #444155",
"-@	c #6E6C7A",
";@	c #8E8B97",
">@	c #96949E",
",@	c #717076",
"'@	c #63656E",
")@	c #75778B",
"!@	c #7D7C8A",
"~@	c #626070",
"{@	c #434155",
"]@	c #18142E",
"^@	c #4F4D60",
"/@	c #403E52",
"(@	c #3C3A4F",
"_@	c #8E8C97",
":@	c #9A99A2",
"<@	c #737378",
"[@	c #717488",
"}@	c #605F71",
"|@	c #120D2A",
"1@	c #4B485B",
"2@	c #595669",
"3@	c #6B6979",
"4@	c #A5A3AC",
"5@	c #78787D",
"6@	c #717388",
"7@	c #5E5D6F",
"8@	c #2F2C42",
"9@	c #0F0927",
"0@	c #26233A",
"a@	c #3D3A4E",
"b@	c #3B384E",
"c@	c #4C4A5D",
"d@	c #6B6A79",
"e@	c #A09FA8",
"f@	c #77767C",
"g@	c #59595A",
"h@	c #64656E",
"i@	c #707387",
"j@	c #5E5D70",
"k@	c #16122C",
"l@	c #1B1730",
"m@	c #2F2B42",
"n@	c #0F0928",
"o@	c #444254",
"p@	c #72707C",
"q@	c #545161",
"r@	c #484559",
"s@	c #696776",
"t@	c #A09EA7",
"u@	c #848388",
"v@	c #646565",
"w@	c #747687",
"x@	c #787785",
"y@	c #656373",
"z@	c #484659",
"A@	c #18132D",
"B@	c #0C0526",
"C@	c #28253B",
"D@	c #252138",
"E@	c #0D0726",
"F@	c #2B283F",
"G@	c #464456",
"H@	c #656370",
"I@	c #83818C",
"J@	c #484657",
"K@	c #3B384D",
"L@	c #666472",
"M@	c #777583",
"N@	c #82808D",
"O@	c #9B99A3",
"P@	c #7C7B80",
"Q@	c #7F7F8C",
"R@	c #676676",
"S@	c #464457",
"T@	c #28253C",
"U@	c #130E2A",
"V@	c #2A263D",
"W@	c #4A4759",
"X@	c #605E6C",
"Y@	c #615F6D",
"Z@	c #454255",
"`@	c #6C6A77",
" #	c #474458",
".#	c #3E3B50",
"+#	c #8C8A95",
"@#	c #8A8992",
"##	c #6A6A6E",
"$#	c #575858",
"%#	c #737583",
"&#	c #6E6D7D",
"*#	c #565365",
"=#	c #3D3A4F",
"-#	c #29263D",
";#	c #555362",
">#	c #666471",
",#	c #474456",
"'#	c #7C7A86",
")#	c #6E6C7B",
"!#	c #686676",
"~#	c #5D5B6A",
"{#	c #787987",
"]#	c #777881",
"^#	c #0F0A28",
"/#	c #4D4A5B",
"(#	c #545261",
"_#	c #7E7C88",
":#	c #878691",
"<#	c #777882",
"[#	c #606161",
"}#	c #39364B",
"|#	c #231F37",
"1#	c #110C29",
"2#	c #16122D",
"3#	c #0D0727",
"4#	c #232038",
"5#	c #86848E",
"6#	c #737180",
"7#	c #201C34",
"8#	c #232037",
"9#	c #413F52",
"0#	c #5E5C6A",
"a#	c #7B7985",
"b#	c #8E8C96",
"c#	c #5C5D5D",
"d#	c #676870",
"e#	c #878694",
"f#	c #716F7D",
"g#	c #37334A",
"h#	c #343148",
"i#	c #565363",
"j#	c #58595F",
"k#	c #4A485B",
"l#	c #575564",
"m#	c #615F6C",
"n#	c #494658",
"o#	c #353247",
"p#	c #807E8B",
"q#	c #7E7E8B",
"r#	c #6A6C78",
"s#	c #7D7E8C",
"t#	c #7F7E8C",
"u#	c #5C5A6B",
"v#	c #424054",
"w#	c #696777",
"x#	c #767481",
"y#	c #6A6874",
"z#	c #0B0425",
"A#	c #8B8996",
"B#	c #7C7D8C",
"C#	c #6A6B6F",
"D#	c #737580",
"E#	c #454357",
"F#	c #5E5C6B",
"G#	c #6D6B78",
"H#	c #817F8A",
"I#	c #454355",
"J#	c #15112C",
"K#	c #5A5869",
"L#	c #7D7B89",
"M#	c #8B8A98",
"N#	c #868697",
"O#	c #78798A",
"P#	c #5B5B5B",
"Q#	c #5D5E61",
"R#	c #6B6B75",
"S#	c #83818D",
"T#	c #646273",
"U#	c #797783",
"V#	c #8A8895",
"W#	c #848494",
"X#	c #757890",
"Y#	c #737689",
"Z#	c #646571",
"`#	c #5E5E62",
" $	c #575656",
".$	c #696973",
"+$	c #6E6F80",
"@$	c #7C7B89",
"#$	c #858390",
"$$	c #3E3C50",
"%$	c #818297",
"&$	c #757994",
"*$	c #747890",
"=$	c #626470",
"-$	c #5A5B60",
";$	c #5D5E62",
">$	c #757681",
",$	c #878692",
"'$	c #494759",
")$	c #464458",
"!$	c #4D4B5E",
"~$	c #514F61",
"{$	c #7C7E95",
"]$	c #6E7390",
"^$	c #6D7186",
"/$	c #5B5B5F",
"($	c #6C6C70",
"_$	c #7F7F87",
":$	c #585666",
"<$	c #747281",
"[$	c #7D7D8F",
"}$	c #787A91",
"|$	c #6D6D71",
"1$	c #72717F",
"2$	c #898894",
"3$	c #858490",
"4$	c #72748A",
"5$	c #6B6E83",
"6$	c #6C6C71",
"7$	c #77777E",
"8$	c #757784",
"9$	c #82818F",
"0$	c #82828F",
"a$	c #6E707E",
"b$	c #62646F",
"c$	c #73747D",
"d$	c #63646F",
"e$	c #595A65",
"f$	c #797883",
"g$	c #5C5C5D",
"h$	c #5F6060",
"i$	c #636368",
"j$	c #6D6D73",
"k$	c #6F6E74",
"l$	c #6C6B72",
"m$	c #6B6B71",
"                                                                                                                        ",
"                                                                                                                        ",
"                                                                                                                        ",
"                                            . + + + + + + + + + + + + + + .                                             ",
"                                          . @ # $ $ $ $ $ $ $ $ $ $ $ $ # @ .                                           ",
"                                      . . @ % $ & * = = = = = = = = * & $ % @ . .                                       ",
"                                - - ; > , ' $ & = ) ! ! ! ! ! ! ! ! ) = & $ ' , > ; - -                                 ",
"                              ~ { { ] ^ & * = / ( ! ! ! ! ! ! ! ! ! ! ( / = * & ^ ] { { ~                               ",
"                            ~ ] $ _ _ : = ( ! ) ) ( ( < < < < < < ( ( ) ) ! ( = : _ _ $ ] ~                             ",
"                          ~ [ } : * = = | ) ! ! ) 1 2 * * 3 3 * * = | ) ! ! ) | = = * : } [ ~                           ",
"                        4 [ # : * ( ) ( < < | < 5 6 7 8 9 0 0 9 a b c | < | < < ( ) ( * : # [ 4                         ",
"                      d [ # : * ( ) ) ( e f g g h i j k l m m n o p q g g g f e ( ) ) ( * : # [ d                       ",
"                    4 [ $ : * | ) ) | c r s t u v w x y z A B B C D E v u t s r c | ) ) | * : $ [ 4                     ",
"                  ~ [ # : = ( ) ) ( F G H I J K L M C N O P P P P P Q R S J I H G F ( ) ) ( = : # [ ~                   ",
"                ~ [ # : * ( ) ) < / T U V W P W L N P P P P P P O X Y L W P W Z `  ...( ) ) ( * : # [ ~                 ",
"              ~ ] } : * | ) ) ( / +.@.#.$.P P P P P P P P P P P %.Y X P P P P P W &.*.=.( ) ) | * : } ] ~               ",
"            - { $ : * ( ) ) < / -.;.#.>.P P P P P P P P P P P P L X O P P P P P P J ,.'./ < ) ) ( * : $ { -             ",
"            - { _ * ( ) ) ( / ).!.~.B P P P P P P P P K {.{.].^.X X P P /./.W P P P (._.+./ ( ) ) ( * _ { -             ",
"            ; ] _ = ) ) | F :.<.[.}.|./.P P P P P ^.^.1.2.2.3.4.5.5.^./.Y Y |.P P P ^.6.@.T F | ) ) = _ ] ;             ",
"          . > ^ : = ( ( c G 7.8.9.O N X R P P P ^.0.a.b.c.c.d.e.f.g.h.P i.j.L P P P P >.#.U G c ( ( = : ^ > .           ",
"          . , & = | | c k.l.V m.P P P 5.n.}.N P ^.o.p.q.r.r.r.s.t.u.h.v.w.N u.x.y.z.A.W >.#.B.C.c | | = & , .           ",
"        . @ ' * ( ) | 3 D.E.W P P W P N }.n.5.K F.G.H.I.J.K.J.J.L.u.M.E.F.K N.O.P.Q.0.F.R.>.S.T.3 | ) ( * ' @ .         ",
"      . @ % $ = ! ! 5 e U.V.W P K W.^.P P R n.K X.Y.J.Z.`. +J.Z..+++@+#+$+%+&+I.Z.*+=+-+;+/.V.U.e 5 ! ! = $ % @ .       ",
"      + # $ & / ) ! 5 >+,+V.W ^.'+b.4.].^.W i.|.)+!+J.Z.~+{+]+Z.^+/+(+(+_+:+^+`.]+Z.<+<+[+N V.,+>+5 ! ) / & $ # +       ",
"      + $ & = ( ) ) 5 >+}+4.W v.|+1+2+2.3+z P P 4+5+6+Z.7+8+9+J.J.Z.Z.Z.J.J.J.0+a+J.Z.Z.b+P 4.}+>+5 ) ) ( = & $ +       ",
"      + $ * ) ! ( | c c+d+e+W f+g+h+i+  4.R j+k+I 5+6+Z.~+l+m+n+o+Z.Z.]+a+p+q+r+p+J.Z.Z.s+t+e+d+c+c | ( ! ) * $ +       ",
"      + $ = ! ! ( = b u+v+w+x+b.y+z+Z.A+B+C+4+D+x+E+I.Z.~+F+G+G+H+I+J+K+L+M+M+N+O+P+`.Z.Q+R+C S+T+U+c ( ! ! = $ +       ",
"      + $ = ! ! < * a V+>.o.W+A+X+Y+J.Z.Z+`+ @.@2++@J.Z.~+@@#@#@G+$@J+J+I+I+I+%@&@*@X+Z.=@-@P ;@>@,@= < ! ! = $ +       ",
"      + $ = ! ! < * '@)@!@~@{@Z.~+]@Y+`.Z.Z.Z.*+^@/@J.Z.~+@@#@#@G+I+Z.Z.Z.Z.Z.0+G+r+X+Z.(@~@W._@:@<@= < ! ! = $ +       ",
"      + $ = ! ! < 3 0 [@}@y+Z.Z.~+|@l+~+Z.Z.Z.Z.<+z+Z.z+~+@@#@#@G+I+Z.Z.Z.Z.Z.Y+r+p+]+Z.1@2@3@O 4@5@c < ! ! = $ +       ",
"      + $ = ! ! < 3 0 6@7@{@Z.Z.~+l+@@8@Z.Z.Z.Z.Z.Z.Z.Z.8@@@#@#@9@0@Z.z+a@a@<+`.X+]+Z.Z.b@c@d@N e@f@g@< ! ! = $ +       ",
"      + $ = ! ! < * h@i@j@  A+K.`.Y+k@l@m@Z.Z.Z.Z.Z.Z.m@l@n@#@#@I+X+J.o@p@p@q@I.Z.Z.Z.Z.r@s@W.O t@u@v@( ! ! = $ +       ",
"      + $ = ! ! < * a w@x@y@z@J.Z.]+A@B@0+z+z+`.C@D@I+H+E@#@#@#@F@I.G@H@N.I@t+J@J.J.K@L@M@N@P O O@P@g < ! ! = $ +       ",
"      + $ = ! ! ( = b u+Q@R@S@I.Z.]+r+E@K+0+0+T@U@M+M+N+E@#@#@#@V@W@X@Y@Z@h.M.`@ #y+.#'+N +#C e+@###$#( ! ! = $ +       ",
"      + $ * ) ! ( | c q %#&#*#=#Z.X+r+G+#@#@#@#@#@l@q+q+l@#@#@#@-#;#>#,#(+'#X I )#!#~#h.W P m.{#i 6 1 ( ! ) * $ +       ",
"      + $ & = ( ) ) | g ]#{.k+p.*+]+p+r+|@#@#@^#$@~+J.J.~+$@^##@C@J./#>#(#_#W R 5.^.K ^.P P :#<#h 5 ) ) ( = & $ +       ",
"      + # $ & / ) ! < [#]#:#0.|+=+}#]+X+|##@1#$@ +J.Z.Z.J.~+2#3#U@4#;#$+5#g.P W /.P P P P P :#]#g < ! ) / & $ # +       ",
"      . @ % $ = ! ! | g t :#{.6#-+<+Z.Z.D@7#~+ +J.Z.Z.Z.Z.]+A@E@B@8#9#0#a#b#i.P P P P P P P :#t g | ! ! = $ % @ .       ",
"        . @ ' * ( ) | c#d##.e#{.f#p.^+K.~+~+Z.g#J.I.h#h#K.X+r+E@G+I+J.^+i#t+{.N P P P P P W I s f < ) ( * ' @ .         ",
"          . , & = | | / j#B.{#e#D+d.k#*+J.J.*+r@z@l#>#m#n#o#2#&@G+I+Z.Z.z+W+p#X O P P P m.q#H r e < | = & , .           ",
"          . > ^ : = ( ( c G r#s#t#o.u#v#=#i+r.u#w#x##+@+y#}#K+|@z#D@Z.Z.<+g+4.Y %.N A#>.B#r#G c ( ( = : ^ > .           ",
"            ; ] _ = ) ) | F C#D#6.W.~@E#p.2+~@w#R.h.F#G#H#I#J.K+J#C@Z.Z.^+K#L#W W M#N#O#D#C#F | ) ) = _ ] ;             ",
"            - { _ * ( ) ) ( P#Q#R#S#T#c.d.k+{.J P %.w.z.U#Y@(+]+X+`.Z.Z.:+M@C V#W#X#Y#Z#`#P#( ) ) ( * _ { -             ",
"            - { $ : * ( ) )  $=.)..$+$@$4.#$P P P N J u.%+U#G@J.Z.Z.Z.Z.$$'+%$&$*$i@=$-$$# $) ) ( * : $ { -             ",
"              ~ ] } : * | ) ) ( =.;$>$,$W P P P P P P K I I@'$)$!$!$!$!$~$j+{$]$^$@./$/ ( ) ) | * : } ] ~               ",
"                ~ [ # : * ( ) )  $P#($_$K P P P P P P O z g.:$!#6#x+6#6#<$[$}$^$U T / < ) ) ( * : # [ ~                 ",
"                  ~ [ # : = ( ) ) ( * |$_$:#:#:#:#m.C |.Y |.1$W.W 2$3$D+3$4$5$U G F ( ) ) ( = : # [ ~                   ",
"                    4 [ $ : * | ) ) | g@6$7$t ]#]#8$9$L n.W ^.P P 0$a$b$c$d$e$-.c | ) ) | * : $ [ 4                     ",
"                      d [ # : * ( ) ) ( e f g [#g q f$i.5.^.K K ^.f$c+g$h$' 3 c ( ) ) ( * : # [ d                       ",
"                        4 [ # : * ( ) ( < < | < | c i$j$k$l$m$m$m$i$c 5 | 5 | | ( ) ( * : # [ 4                         ",
"                          ~ [ } : * = = | ) ! ! ) | 2 g@g@* * * g@c | ) ! ! ) | = = * : } [ ~                           ",
"                            ~ ] $ _ _ : = ( ! ) ) ( ( < < < < < < ( ( ) ) ! ( = : _ _ $ ] ~                             ",
"                              ~ { { ] ^ & * = / ( ! ! ! ! ! ! ! ! ! ! ( / = * & ^ ] { { ~                               ",
"                                - - ; > , ' $ & = ) ! ! ! ! ! ! ! ! ) = & $ ' , > ; - -                                 ",
"                                      . . @ % $ & * = = = = = = = = * & $ % @ . .                                       ",
"                                          . @ # $ $ $ $ $ $ $ $ $ $ $ $ # @ .                                           ",
"                                            . + + + + + + + + + + + + + + .                                             ",
"                                                                                                                        ",
"                                                                                                                        ",
"                                                                                                                        "};
