/* XPM */
static char * sukuna_finger_floor_xpm[] = {
"60 60 275 2",
"  	c #9A9792",
". 	c #9B9893",
"+ 	c #999691",
"@ 	c #989590",
"# 	c #989594",
"$ 	c #979492",
"% 	c #97948E",
"& 	c #97948F",
"* 	c #96938E",
"= 	c #94918C",
"- 	c #95928D",
"; 	c #93908B",
"> 	c #989591",
", 	c #979493",
"' 	c #979491",
") 	c #98958F",
"! 	c #989592",
"~ 	c #989593",
"{ 	c #999693",
"] 	c #9C9994",
"^ 	c #989694",
"/ 	c #979490",
"( 	c #989692",
"_ 	c #979594",
": 	c #989595",
"< 	c #928F8A",
"[ 	c #918E89",
"} 	c #908D88",
"| 	c #8F8C87",
"1 	c #8E8B86",
"2 	c #969390",
"3 	c #95928E",
"4 	c #969491",
"5 	c #979593",
"6 	c #969391",
"7 	c #969392",
"8 	c #8D8A85",
"9 	c #8C8984",
"0 	c #94928F",
"a 	c #949290",
"b 	c #918E8A",
"c 	c #93908C",
"d 	c #94918E",
"e 	c #93908F",
"f 	c #908D89",
"g 	c #93908D",
"h 	c #93908E",
"i 	c #928F8B",
"j 	c #949292",
"k 	c #95928C",
"l 	c #94918F",
"m 	c #511B27",
"n 	c #5C1F2B",
"o 	c #42161F",
"p 	c #949190",
"q 	c #96938F",
"r 	c #4F1C27",
"s 	c #5E212E",
"t 	c #6B2533",
"u 	c #531C26",
"v 	c #48151F",
"w 	c #8B8883",
"x 	c #959291",
"y 	c #190A0E",
"z 	c #351119",
"A 	c #41151E",
"B 	c #47141E",
"C 	c #4B1621",
"D 	c #43151E",
"E 	c #852A3A",
"F 	c #581924",
"G 	c #11070A",
"H 	c #2B1016",
"I 	c #38131A",
"J 	c #47151F",
"K 	c #471624",
"L 	c #511D32",
"M 	c #928F8E",
"N 	c #918E8D",
"O 	c #872A3B",
"P 	c #89293B",
"Q 	c #A22C40",
"R 	c #982B3E",
"S 	c #661D29",
"T 	c #661D2B",
"U 	c #752235",
"V 	c #83253C",
"W 	c #832642",
"X 	c #5B1D34",
"Y 	c #918E8C",
"Z 	c #5E232E",
"` 	c #8A293A",
" .	c #82293D",
"..	c #882A3A",
"+.	c #982A3F",
"@.	c #A12D41",
"#.	c #942A3C",
"$.	c #912C3E",
"%.	c #9B2C40",
"&.	c #932940",
"*.	c #732342",
"=.	c #541C37",
"-.	c #792837",
";.	c #742635",
">.	c #772539",
",.	c #A32C40",
"'.	c #A02C41",
").	c #942940",
"!.	c #832740",
"~.	c #6F2435",
"{.	c #6F233A",
"].	c #68223E",
"^.	c #5F203E",
"/.	c #918E88",
"(.	c #928F8D",
"_.	c #928F8F",
":.	c #682431",
"<.	c #752937",
"[.	c #9A2B40",
"}.	c #7F2538",
"|.	c #992A3E",
"1.	c #922A3F",
"2.	c #902B3F",
"3.	c #88283B",
"4.	c #A12C40",
"5.	c #7F2641",
"6.	c #561E39",
"7.	c #928F8C",
"8.	c #5D202E",
"9.	c #972C40",
"0.	c #99293D",
"a.	c #8F283B",
"b.	c #882739",
"c.	c #90293D",
"d.	c #9C2B40",
"e.	c #722736",
"f.	c #77273A",
"g.	c #7D253F",
"h.	c #5C1E32",
"i.	c #93908A",
"j.	c #561A26",
"k.	c #6E2230",
"l.	c #972A40",
"m.	c #8F293D",
"n.	c #91293D",
"o.	c #9D2B41",
"p.	c #992B3E",
"q.	c #91293C",
"r.	c #912B40",
"s.	c #68203A",
"t.	c #8B2B3C",
"u.	c #8F2A3C",
"v.	c #802939",
"w.	c #8D293C",
"x.	c #982B3D",
"y.	c #8A2639",
"z.	c #8F2B3D",
"A.	c #7A253B",
"B.	c #571C2F",
"C.	c #591D2E",
"D.	c #89293C",
"E.	c #932D40",
"F.	c #952A3D",
"G.	c #8E293D",
"H.	c #8B283C",
"I.	c #90293C",
"J.	c #862A3E",
"K.	c #772438",
"L.	c #66223A",
"M.	c #7B253B",
"N.	c #9D2C40",
"O.	c #982A3D",
"P.	c #942B3D",
"Q.	c #7B263A",
"R.	c #93293D",
"S.	c #602339",
"T.	c #551F38",
"U.	c #8E8B87",
"V.	c #451B2C",
"W.	c #962D3F",
"X.	c #86273A",
"Y.	c #89283B",
"Z.	c #842536",
"`.	c #8E293B",
" +	c #992D3F",
".+	c #8B293C",
"++	c #A02B3F",
"@+	c #8B2A3D",
"#+	c #80273A",
"$+	c #602132",
"%+	c #43192D",
"&+	c #8C8986",
"*+	c #8F8C8B",
"=+	c #8E8B88",
"-+	c #501E35",
";+	c #78273B",
">+	c #7E2536",
",+	c #75243D",
"'+	c #86283D",
")+	c #912B3F",
"!+	c #85283C",
"~+	c #7A2539",
"{+	c #84263D",
"]+	c #76253F",
"^+	c #5E1E39",
"/+	c #48192F",
"(+	c #8A8782",
"_+	c #8F8C89",
":+	c #521F37",
"<+	c #5A203B",
"[+	c #83293E",
"}+	c #551D30",
"|+	c #682237",
"1+	c #7C2739",
"2+	c #932A3D",
"3+	c #7D2538",
"4+	c #6D2136",
"5+	c #82253A",
"6+	c #86293E",
"7+	c #7D263E",
"8+	c #74223D",
"9+	c #8D8A86",
"0+	c #908D8B",
"a+	c #4F2035",
"b+	c #531E37",
"c+	c #662243",
"d+	c #5D213A",
"e+	c #6D233B",
"f+	c #76243B",
"g+	c #972D41",
"h+	c #511F29",
"i+	c #682235",
"j+	c #60203D",
"k+	c #87273F",
"l+	c #8A293E",
"m+	c #6F2235",
"n+	c #8F8C8A",
"o+	c #898681",
"p+	c #571E38",
"q+	c #6F2539",
"r+	c #83283D",
"s+	c #A32C41",
"t+	c #952A3E",
"u+	c #61223C",
"v+	c #5E203D",
"w+	c #481C30",
"x+	c #59203A",
"y+	c #908D8C",
"z+	c #8F8D8A",
"A+	c #888580",
"B+	c #4C1B32",
"C+	c #521E35",
"D+	c #511932",
"E+	c #441529",
"F+	c #5E2034",
"G+	c #632039",
"H+	c #571F39",
"I+	c #5C213C",
"J+	c #58203A",
"K+	c #8F8C88",
"L+	c #87847F",
"M+	c #531F37",
"N+	c #57203A",
"O+	c #59223C",
"P+	c #562038",
"Q+	c #4F1D35",
"R+	c #918E8B",
"S+	c #86837E",
"T+	c #908E8B",
"U+	c #85827D",
"V+	c #908D8D",
"W+	c #8B8884",
"X+	c #8C8985",
"Y+	c #8D8A89",
"Z+	c #898682",
"  . + @ + . .   + # $ % & @ + @ & & & @ +   + @ * = * @ + + + @ @ @   + @ & * * & @ + @ & & * - - - * * * = ; ; ; = = = ",
"  . + @ @ +   + @ > , ' & @ @ @ & & & @ @ + + @ & & & & @ @ @ @ @ @   + @ & * & & @ + @ @ & - = = - * * * = = = = = = = ",
"  . + & & @ @ @ @ ) ! ~ > @ @ @ @ & * & @ + + + +   + @ & @ @ + + +   + + @ & & & @ @ @ & * - = = - - * * - - = = - - = ",
"  . + & * & * & @ @ @ { # & & @ @ & * & @ + + +   . + @ & @ + + + @ @ @ + + @ @ @ & * * * * - - - - - - - * - = = - - - ",
"  ]   & * * - * @ + + { ^ / * @ @ & * * @ + + +     + @ @     + & - - * & @ + @ & - = = - - * * - - = = = - = = = - - - ",
"  .   @ * - = * & +   + ( _ * + + & * & @ + + + + @ @ @ +     @ - ; ; = * & @ & * = ; ; - - * * * - - = ; = ; ; ; = = = ",
"& @ & * = ; ; = * & @ @ ! : /     @ @ + . . .   & - - * * * * - - ; < < = * & & * = ; - * * * * - - - - = < < [ [ } | | ",
"* * * = < < ; = - * * % ' : / + + @ & @ +     @ * - - - - - - = = ; [ < ; = - - - ; ; = = = = = = = = = = < < [ } | | 1 ",
"- = = ; [ [ = = = = = - 2 _ / @ @ & * & @ @ @ & * - - - - = = ; < [ [ < < < ; ; ; ; ; ; ; ; ; ; ; < ; ; < < [ [ } | | 1 ",
"= = = ; [ < - - = = = = 3 4 5 / & * * * & & & * * - - - = = ; < [ [ < ; < < [ < < ; ; ; ; ; ; < < < [ [ [ [ [ } } | | 1 ",
"- - - = < ; * * - - = - * & ~ ~ / & & & * * * * * - - - = ; < < [ [ = = ; < [ < < ; = = ; ; ; < < [ [ [ } } } } | | | 1 ",
"- * * - ; = & * * * - * & & @ ~ ~ ' & & * - * * * - - - = = ; < [ [ = = ; < < < < ; = = = ; ; < < [ [ } } } } | | | 1 1 ",
"* & & * = = & & & * * * & * * * $ ~ > * = = = - - - - - - - = ; < < = = ; < < < < ; ; ; ; ; < [ [ } } | | | | | | 1 1 1 ",
"* & & * = = * * * & * * * - - - - $ , - ; < < ; = - - - - - - = = ; = ; ; < < [ [ < < < < < [ } } | 1 1 1 | | 1 1 1 1 1 ",
"- - * - = = = - * * * - - = ; ; = 6 7 ; < } [ < = - - * * - - - - = < < < < [ [ } } } } [ [ } | 1 8 8 9 8 1 1 1 1 1 1 1 ",
"< ; ; ; = - * - - - - = ; ; ; ; ; 0 a b } } [ ; = - = ; ; < ; = = - ; ; ; < < [ } } | | | | 1 1 1 1 1 | | } } | 1 1 8 8 ",
"< ; ; = - * * - - - = = ; ; ; ; ; c d e f [ < = - = ; ; < ; ; - * - ; ; < < < [ } | | | | | 1 1 1 1 | | | | | 1 1 1 1 1 ",
"; = = * & & * - - - = = ; ; ; < ; ; c g h i ; - - ; ; < < ; = * & & ; ; < < [ [ } | | | | 1 1 8 8 1 1 | | 1 1 8 8 1 1 1 ",
"; = - * @ & * - - - = = ; ; ; < ; ; ; c j c k & * = ; ; ; ; = - & & ; ; < [ [ } | | | | 1 1 8 8 8 8 1 1 1 1 1 8 8 8 1 1 ",
"; = = * * * * - - - = = ; ; ; < ; ; ; c l l * & & - = = ; ; ; = - - ; < < < [ } | | | 1 1 1 8 8 8 8 1 1 1 | 1 1 8 8 8 8 ",
"; ; ; = = - * - - - = = ; ; ; < ; ; ; < < l 2 / & * - = < [ [ < < < < < < [ } } | | m n o 8 8 8 8 8 8 1 | } | 1 8 9 9 9 ",
"< < < ; ; - * - - - = = ; ; ; < ; ; ; < [ < p 6 q - = ; [ } } } [ [ < < [ } } r s t u v 8 8 8 9 9 8 8 8 1 | | 1 8 9 9 w ",
"[ [ < ; = - * - - - = = ; ; ; ; ; ; ; [ } [ i x x ; < [ } | } } } [ < < [ y z A B C B D 8 8 9 9 9 9 8 8 8 1 1 8 9 9 9 9 ",
"} [ < ; = - * - - - - = ; ; ; ; ; ; < [ } } [ p l [ } | | | | } [ < < E F G H I J K L 8 8 8 9 9 9 9 8 8 8 8 9 9 9 9 9 8 ",
"} | | [ = - * * * * - = ; < [ | 1 } [ [ [ } } M N | } [ [ | | | } O P Q R S T U V W X 8 8 8 8 8 8 8 8 8 8 w 9 9 9 9 9 9 ",
"} 1 | [ ; = = = = = = ; ; < [ 1 1 | } [ [ [ } M Y | } [ } Z `  ...+.@.#.R $.%.&.*.=.8 8 8 8 8 8 8 8 8 8 8 9 9 9 9 9 9 9 ",
"| 1 | } < ; ; ; ; < < < < < [ | | | } [ [ [ [ b Y Y } } } -.;.>.,.'.).!.~.{.].^.| 1 8 8 8 8 8 8 8 8 8 8 8 9 9 9 9 9 9 9 ",
"| | | } [ < < < [ [ [ [ < ; ; } | } [ [ [ [ [ /.(._.} :.<.[.}.|.1.2.3.4.5.6.8 1 1 1 1 8 8 8 8 8 8 8 8 8 8 9 9 9 9 9 9 9 ",
"| | | } } [ < < [ [ [ [ < = = [ } [ [ [ [ [ [ < 7.(.8.9.0.a.b.c.d.e.f.g.h.8 8 1 1 1 1 1 8 8 8 8 8 8 8 8 8 9 9 9 9 9 9 9 ",
"} [ [ } } } < < [ [ [ < < = = < [ [ [ [ [ < < ; i.j.k.l.m.n.o.p.q.r.s.} 1 8 1 1 | | 1 1 1 1 1 1 1 1 1 1 1 8 8 8 9 9 9 w ",
"[ < < [ } } [ [ [ [ [ < < ; ; < < < < [ < < ; = t.u.v.w.x.[.y.z.A.B.} | 1 1 1 | | | 1 1 1 1 1 1 1 1 1 1 1 8 8 8 9 9 9 w ",
"< = = < } | } } [ [ [ [ [ [ [ ; ; < < [ < ; C.D.c.E.F.G.H.I.J.K.L.N f 1 8 8 1 | | 8 9 8 1 1 1 1 1 1 1 1 1 1 8 8 9 9 9 w ",
"; = - ; [ | 1 | } [ [ [ } | | ; ; ; < [ M.N.Q O.P.Q.I.,.,.R.S.T.| U.N U.9 8 1 1 1 9 w 8 1 1 1 1 1 1 1 1 1 1 1 8 9 9 9 w ",
"[ < < [ [ | 8 1 } < ; ; < [ } < ; ; ; V.W.X.Y.Z.`. +.+++@+#+$+%+9 w &+*+=+1 | | | 1 8 1 } | | | | | | | 1 8 8 9 9 w w w ",
"| } } } } 1 8 1 } < ; ; < [ [ [ < < -+;+>+,+'+)+y.Y.!+~+{+]+^+/+w (+(+&+*+_+1 1 1 8 8 1 | 1 1 1 1 1 1 1 1 8 9 9 w w (+(+",
"| | | | 1 1 1 | } [ [ < [ < < [ [ :+<+[+}+|+1+2+3+4+5+6+7+8+1 8 w (+w w 9+*+N 0+9+9 9 8 8 8 8 8 8 8 8 8 8 9 9 9 w (+(+(+",
"1 1 1 1 8 1 } } } } } [ [ < < a+b+c+d+e+f+g+h+i+j+k+l+m+1 | 1 8 w (+w w 9 =+0+0+n+8 9 8 8 8 8 8 8 9 9 9 w w w w w (+(+o+",
"1 1 1 8 9 1 [ } } | | } [ < < < < p+q+r+s+t+u+v+:+w+x+1 1 | 1 8 9 w 8 8 8 8 8 U.y+z+1 1 1 8 8 8 9 9 9 9 w w w w (+(+o+A+",
"1 1 1 1 8 1 < [ } | | | } < ; B+C+D+E+F+G+H+I+J+[ } | 1 | | | 1 8 9 | | | 1 1 1 U.Y 0+K+| 1 1 8 8 9 9 w w (+(+(+(+o+A+L+",
"1 | | | 1 | < [ } | | } } [ < ; ; ; M+N+O+P+Q+} } [ } | | } } | 1 8 } } | 1 1 1 1 | N R+K+1 1 8 9 9 w w (+o+o+(+o+o+A+S+",
"| } } } | } [ [ } } } } } } [ < < < < [ } } | | } [ [ } } [ [ } | 1 } } | 1 8 8 8 1 | Y T+U.9+9 w (+o+o+o+A+o+o+o+o+L+U+",
"} [ [ [ } } [ [ [ [ } } } } } [ [ [ [ } | 1 1 1 } < [ [ [ [ < [ | 1 } | | 8 9 9 9 8 1 1 n+V+*+9 (+o+o+A+A+A+A+o+o+A+L+U+",
"| | | } [ } | | } } } } } | | } } | 1 9 w 9 1 } } } } | | } } } } } | | | 1 8 8 9 9 9 w W+X+&+Y+Z+L+A+o+(+(+(+A+A+L+S+S+",
"1 | | } [ [ | | } } } } } | | | | | 1 8 9 9 1 } } | | | | | } [ [ [ } | | | 1 8 9 9 w (+(+(+(+W+A+L+A+(+(+(+o+A+L+L+L+L+",
"1 1 } [ < < | | } } } } } | | 1 1 | } } | | | } } | | | | } [ < ; ; } } | | 1 8 8 9 9 w w w (+o+A+A+o+(+w A+L+L+L+L+A+A+",
"8 1 | [ < < | | } } } } } | | 1 1 } [ [ } } [ < [ } } } } [ < < ; ; } } | 1 1 8 8 9 9 9 9 9 w (+o+A+(+w w A+A+L+L+A+A+o+",
"8 1 1 | [ } | | } } } } } | | | | } [ } | } < ; ; < < [ [ [ [ < < < [ } } | 1 1 8 9 9 9 8 8 9 w (+o+(+9 9 (+o+A+A+A+o+o+",
"8 8 8 8 1 | | | } } } } } | | [ [ [ } | 1 } < - - ; ; < [ [ [ [ [ [ [ } } } | 1 8 8 9 8 8 8 9 w (+(+(+9 8 w (+o+o+o+o+o+",
"9 9 9 8 1 1 | | } } } } } | | [ [ [ | 1 8 | < - - ; ; < [ } | | | | [ [ } | | 1 1 8 8 8 8 8 9 w o+o+(+9 8 9 w (+(+(+o+o+",
"w 9 9 8 1 1 | | } } } } } | | [ [ [ } | 1 1 } < ; < < [ } | | | | | [ [ } } | | 1 8 8 9 9 9 9 (+o+o+(+w 9 (+(+(+(+(+(+w ",
"w 9 8 1 | | | | } } } } } | | | } } [ } | | | } } } } | | | | | } } [ [ } } } | 1 8 8 9 9 9 w (+A+A+o+w w o+o+o+(+(+w 9 ",
"(+w 9 8 | } [ [ [ < < [ } | 1 1 1 1 | } } } | 8 1 | } } | 1 1 | [ < < [ [ [ < < [ | 8 w (+o+o+o+o+o+o+o+o+A+A+A+o+o+(+w ",
"o+(+w 8 1 | [ [ [ [ [ [ } | | 1 1 1 | } [ [ } 1 1 | } } | 1 8 1 [ < [ [ } } [ [ [ | 8 w o+o+A+A+o+(+o+o+A+A+A+A+A+o+o+o+",
"o+(+w 9 8 1 } } } } } } | } } } | | | } < < [ } | | } } | 1 8 1 } [ } | 1 1 1 1 1 1 9 w (+o+A+o+(+(+(+o+A+A+A+A+A+A+A+o+",
"o+(+w w 9 8 1 1 1 1 1 1 | } } } | | | } [ [ [ } | | | | | 1 8 1 | } } 1 8 9 9 8 8 8 9 w (+o+o+o+(+w (+(+o+A+A+A+A+A+A+A+",
"(+(+w w w 9 1 8 8 8 8 1 | } [ } | 1 1 | } [ } } | | | | | 1 1 1 1 | } | 8 9 9 9 8 9 9 9 w (+o+(+w w w (+o+A+A+A+A+A+A+A+",
"w w w w w 9 8 8 9 9 8 1 | } [ [ } | | } } [ [ [ } } } | | | | | 1 1 } } 1 8 8 8 8 8 8 9 9 w (+(+w 9 9 w (+A+A+A+A+A+A+A+",
"9 9 9 w w 9 8 8 8 8 1 1 | } } < < [ [ [ < ; ; ; < [ } } } [ [ } 1 1 } } | 1 1 1 1 1 8 9 9 w (+w 9 8 9 9 w (+(+o+o+o+o+o+",
"1 8 8 9 w 9 8 8 1 | | | } } } ; ; < [ [ < = = = ; ; < [ [ < < [ 1 1 } | 1 1 1 | | 8 9 9 9 9 w w 8 8 9 9 w w w w (+(+(+(+",
"| 1 8 9 w 9 8 1 | } } } } | | < < } | } [ < ; ; ; ; < [ < ; ; < | 8 1 1 1 1 1 | 1 9 w 9 8 9 w 9 8 8 9 9 w 9 9 9 w w w (+"};
